<?xml version="1.0" encoding="utf-8"?>
<!-- Generator: Adobe Illustrator 24.0.1, SVG Export Plug-In . SVG Version: 6.00 Build 0)  -->
<svg version="1.1" id="Layer_1" xmlns="http://www.w3.org/2000/svg" xmlns:xlink="http://www.w3.org/1999/xlink" x="0px" y="0px"
	 viewBox="0 0 50 50" style="enable-background:new 0 0 50 50;" xml:space="preserve">
<style type="text/css">
	.st0{fill-rule:evenodd;clip-rule:evenodd;fill:#FFFFFF;}
</style>
<g>
	<path class="st0" d="M40.56,12.27c3.1,0,6.15,0,9.24,0c0,12.1,0,24.18,0,36.31c-3.08,0-6.13,0-9.24,0
		C40.56,36.51,40.56,24.43,40.56,12.27z"/>
	<path class="st0" d="M14.4,19.12c3.12,0,6.17,0,9.28,0c0,9.83,0,19.63,0,29.48c-3.1,0-6.16,0-9.28,0
		C14.4,38.79,14.4,28.99,14.4,19.12z"/>
	<path class="st0" d="M36.77,23.72c0,8.35,0,16.6,0,24.88c-3.13,0-6.18,0-9.31,0c-0.01-0.26-0.03-0.5-0.03-0.74c0-3.1,0-6.21,0-9.31
		c0-4.71,0.01-9.41-0.01-14.12c0-0.55,0.14-0.73,0.71-0.72c2.64,0.03,5.28,0.01,7.91,0.01C36.25,23.72,36.46,23.72,36.77,23.72z"/>
	<path class="st0" d="M10.61,48.61c-3.11,0-6.15,0-9.24,0c0-6.19,0-12.37,0-18.59c3.07,0,6.13,0,9.24,0
		C10.61,36.21,10.61,42.38,10.61,48.61z"/>
	<path class="st0" d="M18.87,8.2c3.69,2.6,7.45,5.25,11.26,7.93c3.1-3.24,6.18-6.47,9.32-9.75c-0.66-0.51-1.29-0.99-2-1.55
		c2.86-1.13,5.62-2.23,8.53-3.38c-0.82,2.73-1.59,5.33-2.39,8c-0.68-0.5-1.3-0.97-1.99-1.48c-3.68,3.88-7.37,7.77-11.09,11.69
		c-3.73-2.62-7.56-5.32-11.4-8.02c-5.74,5.3-11.46,10.58-17.21,15.9c-0.62-0.66-1.19-1.28-1.8-1.95C6.34,19.8,12.57,14.03,18.87,8.2
		z"/>
</g>
</svg>
