<?xml version="1.0" encoding="utf-8"?>
<!-- Generator: Adobe Illustrator 24.0.1, SVG Export Plug-In . SVG Version: 6.00 Build 0)  -->
<svg version="1.1" id="Layer_1" xmlns="http://www.w3.org/2000/svg" xmlns:xlink="http://www.w3.org/1999/xlink" x="0px" y="0px"
	 viewBox="0 0 50 50" style="enable-background:new 0 0 50 50;" xml:space="preserve">
<style type="text/css">
	.st0{fill:#555759;}
</style>
<g>
	<path class="st0" d="M12.84,22.78c-6.33,0-9.49-3.75-9.49-11.26c0-7.51,3.16-11.26,9.49-11.26c2.63,0,4.88,0.84,6.72,2.53
		c1.85,1.69,2.77,4.62,2.77,8.8c0,4.18-0.92,7.09-2.77,8.73C17.71,21.96,15.47,22.78,12.84,22.78z M12.84,18.97
		c3.37,0,5.06-2.45,5.06-7.35c0-3.65-0.76-5.96-2.29-6.93C14.87,4.23,13.96,4,12.87,4c-1.09,0-1.99,0.23-2.7,0.69
		C9.45,5.16,8.93,5.8,8.61,6.64c-0.46,1.34-0.69,2.84-0.69,4.5c0,1.66,0.08,2.97,0.24,3.92C8.32,16,8.8,16.89,9.58,17.72
		C10.37,18.55,11.45,18.97,12.84,18.97z M10.34,49.04c0-0.23,0.09-0.46,0.28-0.69L36.47,1.58c0.46-0.88,1.39-1.32,2.78-1.32h0.35
		c1.11,0,1.66,0.21,1.66,0.62c0,0.09-0.09,0.32-0.28,0.69L15.13,48.35c-0.46,0.88-1.38,1.32-2.77,1.32h-0.35
		C10.9,49.67,10.34,49.46,10.34,49.04z M38.55,49.53c-6.33,0-9.5-3.75-9.5-11.26c0-7.51,3.17-11.26,9.5-11.26
		c2.63,0,4.87,0.84,6.72,2.53c1.85,1.68,2.77,4.62,2.77,8.8c0,4.18-0.93,7.09-2.77,8.74C43.42,48.71,41.18,49.53,38.55,49.53z
		 M34.36,33.39c-0.3,0.83-0.5,1.62-0.59,2.35c-0.09,0.74-0.14,1.7-0.14,2.88c0,1.18,0.08,2.24,0.24,3.19
		c0.16,0.95,0.63,1.83,1.42,2.67c0.78,0.83,1.86,1.25,3.26,1.25c3.37,0,5.06-2.45,5.06-7.35c0-3.65-0.76-5.96-2.29-6.93
		c-0.74-0.46-1.65-0.69-2.74-0.69c-1.08,0-1.98,0.23-2.7,0.69C35.16,31.9,34.66,32.55,34.36,33.39z"/>
</g>
</svg>
