<?xml version="1.0" encoding="utf-8"?>
<!-- Generator: Adobe Illustrator 24.0.1, SVG Export Plug-In . SVG Version: 6.00 Build 0)  -->
<svg version="1.1" id="Layer_1" xmlns="http://www.w3.org/2000/svg" xmlns:xlink="http://www.w3.org/1999/xlink" x="0px" y="0px"
	 viewBox="0 0 50 50" style="enable-background:new 0 0 50 50;" xml:space="preserve">
<style type="text/css">
	.st0{fill:#FFFFFF;}
</style>
<g>
	<path class="st0" d="M44.48,14.85c-2.82-1.54-6.82-2.95-11.33-3.87c-4.52-0.92-8.75-1.18-11.95-0.85c-3.72,0.37-6.23,1.64-6.65,3.7
		c-0.04,0.19-0.06,0.37-0.06,0.56l-0.05,0.01l-1.01,4.98l-0.02,0.12c-0.06,0.56-0.02,1.11,0.14,1.65c0.15,0.52,0.4,1.01,0.76,1.48
		l0.03,0.04c1.1,1.36,3.18,2.73,5.92,3.93c2.55,1.11,5.69,2.1,9.14,2.8c3.74,0.76,7.27,1.07,10.18,0.97
		c3.16-0.1,5.68-0.71,7.06-1.78c0.36-0.28,0.67-0.59,0.91-0.97c0.25-0.4,0.42-0.84,0.48-1.33l1.05-5.18
		c0.03-0.09,0.05-0.17,0.07-0.26C49.58,18.79,47.76,16.65,44.48,14.85z M16.62,20.83L16.62,20.83c-0.12-0.17-0.21-0.33-0.26-0.5
		c-0.04-0.14-0.05-0.29-0.04-0.44l0.36-1.75c0.06,0.05,0.12,0.1,0.19,0.15c0.1,0.08,0.2,0.16,0.31,0.24l-0.48,2.39
		C16.67,20.88,16.64,20.85,16.62,20.83z M18.1,22.13c-0.38-0.26-0.71-0.52-0.98-0.77l0.51-2.51c0.31,0.21,0.65,0.43,1.01,0.64
		L18.1,22.13z M20.07,23.27c-0.37-0.19-0.72-0.38-1.05-0.57l0.55-2.7c0.34,0.18,0.69,0.35,1.06,0.53L20.07,23.27z M22.59,24.39
		c-0.4-0.16-0.79-0.32-1.16-0.48c-0.14-0.06-0.28-0.12-0.42-0.19l0.56-2.77c0.36,0.16,0.74,0.31,1.12,0.46
		c0.15,0.06,0.31,0.12,0.46,0.18L22.59,24.39z M25.55,25.41c-0.58-0.18-1.15-0.36-1.69-0.55l0.57-2.81
		c0.55,0.19,1.11,0.37,1.69,0.54L25.55,25.41z M28.97,26.3c-0.58-0.13-1.16-0.27-1.72-0.42l0.57-2.83c0.42,0.11,0.84,0.21,1.27,0.31
		l0.01,0l0.2,0.05l0.01,0l0.18,0.04l0.03,0.01l0.03,0.01L28.97,26.3z M45.91,20.66c-0.21,0.16-0.48,0.3-0.83,0.39l-0.09,0.03
		c-0.69,0.24-1.55,0.42-2.54,0.53l-0.03,0c-1.4,0.15-2.78,0.16-4.19,0.1l-0.02,0c-1.63-0.07-3.42-0.26-5.29-0.57l-0.01,0
		c-1.1-0.18-2.2-0.4-3.28-0.66c-2.16-0.51-4.15-1.12-5.88-1.8c-2.16-0.84-3.9-1.77-5.06-2.69c-0.61-0.48-0.78-0.77-1.11-1.33
		c-0.05-0.08-0.1-0.16-0.15-0.26c0.14-0.65,1.68-1.13,4.06-1.37c2.91-0.29,6.83-0.04,11.08,0.82c4.25,0.86,7.96,2.16,10.52,3.56
		c2.06,1.13,3.28,2.14,3.21,2.8C46.19,20.39,46.06,20.54,45.91,20.66z"/>
	<path class="st0" d="M25.26,30.46c-1.52,0.22-3.19,0.38-4.95,0.44H20.3c-1.11,0.04-2.23,0.04-3.35,0.01
		c-2.21-0.07-4.29-0.27-6.12-0.59c-2.28-0.4-4.18-0.96-5.5-1.63c-0.69-0.35-0.91-0.6-1.35-1.08c-0.06-0.07-0.13-0.14-0.2-0.22
		c0-0.67,1.42-1.44,3.71-2.15c1.44-0.45,3.18-0.81,5.12-1.05c-0.32-0.44-0.55-0.9-0.69-1.39c-0.14-0.47-0.19-0.96-0.16-1.45
		c-1.92,0.26-3.65,0.64-5.12,1.09c-3.57,1.11-5.78,2.84-5.78,4.94c0,0.19,0.02,0.38,0.05,0.56l-0.05,0.02v5.08l0.01,0.13
		c0.05,0.56,0.21,1.09,0.47,1.59c0.25,0.47,0.6,0.91,1.04,1.3l0.03,0.03c1.34,1.11,3.66,2.04,6.58,2.67c2.72,0.58,6,0.93,9.52,0.93
		c3.81,0,7.34-0.4,10.17-1.07c3.08-0.73,5.42-1.83,6.57-3.15c0.3-0.34,0.54-0.71,0.7-1.13c0.17-0.44,0.25-0.9,0.2-1.4v-0.92
		c-2.52-0.05-5.39-0.37-8.38-0.98C26.91,30.86,26.08,30.67,25.26,30.46z M4.36,33.9c-0.03-0.02-0.06-0.05-0.09-0.07l0,0
		C4.12,33.69,4,33.54,3.92,33.39c-0.07-0.13-0.11-0.27-0.13-0.43v-1.79c0.07,0.04,0.14,0.07,0.22,0.11
		c0.11,0.06,0.23,0.12,0.35,0.17V33.9z M5.99,34.81c-0.42-0.18-0.8-0.37-1.12-0.56v-2.56c0.35,0.15,0.73,0.29,1.12,0.43V34.81z
		 M8.14,35.54c-0.4-0.11-0.78-0.23-1.14-0.35v-2.76c0.37,0.11,0.75,0.21,1.14,0.3V35.54z M10.83,36.13
		c-0.42-0.07-0.83-0.15-1.23-0.24c-0.15-0.03-0.3-0.07-0.45-0.1v-2.83c0.39,0.08,0.78,0.16,1.19,0.23c0.16,0.03,0.33,0.06,0.49,0.08
		V36.13z M13.93,36.54c-0.61-0.06-1.2-0.12-1.77-0.2v-2.87c0.57,0.07,1.16,0.14,1.77,0.19V36.54z M17.46,36.74
		c-0.6-0.01-1.19-0.03-1.77-0.07v-2.89c0.43,0.02,0.86,0.04,1.3,0.05l0.01,0l0.21,0.01h0.01l0.18,0l0.03,0h0.03V36.74z"/>
</g>
</svg>
