<svg xmlns="http://www.w3.org/2000/svg" width="48" height="48" viewBox="0 0 48 48"><defs><style>.a{fill:rgba(255,255,255,0);}.b{fill:#336094;}</style></defs><g transform="translate(-842 -386)"><rect class="a" width="48" height="48" transform="translate(842 386)"/><g transform="translate(844.556 389.85)"><g transform="translate(5.444 8.798)"><path class="b" d="M13.976,29.522S8.125,26.258,6.344,21.9c-2.023-4.924,0-11.018,0-11.018s.056,2.1,2.547,4.239c2.12,1.821,6.641,3.5,7.632,5.932,1.547,3.788-2.547,8.471-2.547,8.471Z" transform="translate(-5.444 -10.88)"/></g><g transform="translate(19.054 12.65)"><path class="b" d="M24.087,15.66a1.757,1.757,0,1,1-1.757,1.757,1.761,1.761,0,0,1,1.757-1.757Z" transform="translate(-22.33 -15.66)"/></g><g transform="translate(21.794 5.115)"><path class="b" d="M27.616,6.31A1.886,1.886,0,1,1,25.73,8.2,1.888,1.888,0,0,1,27.616,6.31Z" transform="translate(-25.73 -6.31)"/></g><g transform="translate(15.12 0.15)"><path class="b" d="M19.634.15A2.184,2.184,0,1,1,17.45,2.334,2.181,2.181,0,0,1,19.634.15Z" transform="translate(-17.45 -0.15)"/></g><path class="b" d="M25.52,21.972c-4.844,2.418-7.632,9.317-7.632,9.317a59.584,59.584,0,0,0-.983,6.972A34.093,34.093,0,0,0,17.042,44h7.632a30.935,30.935,0,0,1-3.4-5.392A22.643,22.643,0,0,1,19.58,32.99s7.826-.33,12.726-3.393c5.263-3.288,7.632-9.317,7.632-9.317S31.565,18.95,25.52,21.972Zm2.8,5.892a1.854,1.854,0,1,1,1.854-1.854A1.854,1.854,0,0,1,28.317,27.864Z" transform="translate(-2.211 -3.849)"/></g></g></svg>