<?xml version="1.0" encoding="utf-8"?>
<!-- Generator: Adobe Illustrator 24.0.1, SVG Export Plug-In . SVG Version: 6.00 Build 0)  -->
<svg version="1.1" id="Layer_1" xmlns="http://www.w3.org/2000/svg" xmlns:xlink="http://www.w3.org/1999/xlink" x="0px" y="0px"
	 viewBox="0 0 50 50" style="enable-background:new 0 0 50 50;" xml:space="preserve">
<style type="text/css">
	.st0{fill:#FFFFFF;}
</style>
<g>
	<path class="st0" d="M41.72,45.66c-0.54,2.41-2.88,4.22-5.68,4.22H8.77c-2.81,0-5.15-1.81-5.68-4.22H41.72z"/>
	<path class="st0" d="M3.45,18.33C4.11,30.95,8.92,39.89,15.5,43.64c2.14,1.22,11.79,1.3,13.75,0.04
		c6.62-3.72,11.45-12.69,12.12-25.35H3.45z"/>
	<path class="st0" d="M38.16,37.87c-1.19,0.45-2.38,0.78-3.54,1c0.61-0.8,1.19-1.67,1.72-2.59c0.18-0.06,0.35-0.12,0.53-0.19
		c5.21-1.95,8.64-5.66,7.66-8.3c-0.51-1.37-2.13-2.18-4.29-2.36c0.15-0.78,0.28-1.58,0.4-2.4c3.43,0.12,6.11,1.38,6.95,3.62
		C48.98,30.38,44.76,35.41,38.16,37.87z"/>
	
		<rect x="23.66" y="0.97" transform="matrix(0.9755 -0.2201 0.2201 0.9755 -0.4071 6.1988)" class="st0" width="7.91" height="7.91"/>
	
		<rect x="14.81" y="8.45" transform="matrix(0.9755 -0.2201 0.2201 0.9755 -2.2704 4.4345)" class="st0" width="7.91" height="7.91"/>
</g>
</svg>
