<?xml version="1.0" encoding="utf-8"?>
<!-- Generator: Adobe Illustrator 24.0.1, SVG Export Plug-In . SVG Version: 6.00 Build 0)  -->
<svg version="1.1" id="Layer_1" xmlns="http://www.w3.org/2000/svg" xmlns:xlink="http://www.w3.org/1999/xlink" x="0px" y="0px"
	 viewBox="0 0 50 50" style="enable-background:new 0 0 50 50;" xml:space="preserve">
<style type="text/css">
	.st0{fill:#FFFFFF;}
</style>
<g>
	<g>
		<path class="st0" d="M14.46,37.59l5.27,2.57c0,0,1.57-1.73,2.62-3.89c1.05-2.16,1.43-4.41,1.43-4.41l-5.27-2.57
			c0,0-1.59,1.78-2.6,3.84C14.91,35.19,14.46,37.59,14.46,37.59z"/>
		<path class="st0" d="M19.15,27.98l5.27,2.57c0,0,1.57-1.73,2.62-3.89c1.05-2.16,1.43-4.41,1.43-4.41l-5.26-2.57
			c0,0-1.59,1.78-2.6,3.84C19.6,25.59,19.15,27.98,19.15,27.98z"/>
		<path class="st0" d="M9.77,47.19l5.27,2.57c0,0,1.57-1.73,2.62-3.89c1.05-2.16,1.43-4.41,1.43-4.41l-5.27-2.57
			c0,0-1.59,1.78-2.6,3.84C10.22,44.79,9.77,47.19,9.77,47.19z"/>
		<g>
			<path class="st0" d="M30.64,9.93c-2.67,5.02-4.22,9.41-3.46,9.8c0.76,0.39,3.53-3.37,6.2-8.4c2.67-5.02,3.46-9.8,3.46-9.8
				S33.31,4.9,30.64,9.93z"/>
			<path class="st0" d="M22.36,9.37c0.92,5.17,2.31,9.41,3.11,9.47c0.8,0.05,0.71-4.09-0.2-9.26C24.35,4.4,22.16,0.1,22.16,0.1
				S21.44,4.2,22.36,9.37z"/>
			<path class="st0" d="M37.68,15.07c-5.34,2.44-9.26,4.93-8.75,5.54c0.51,0.62,5.25-0.87,10.58-3.31c0.73-0.33,1.41-0.67,2.06-1.02
				l-3.06-1.58C38.23,14.82,37.95,14.94,37.68,15.07z"/>
			<path class="st0" d="M38.53,14.66l3.06,1.57c0.51,4.6,0.03,7.97,0.03,7.97S39.59,19.96,38.53,14.66z"/>
		</g>
	</g>
	<g>
		<g>
			<path class="st0" d="M25.77,31.87l-0.03,0.16c-0.02,0.11-0.44,2.57-1.6,4.96c-0.5,1.02-1.1,1.95-1.62,2.68
				c0.19,0.25,0.31,0.39,0.31,0.39l5.37-2.35c0,0-0.35-2.41-1.27-4.52c-0.26-0.58-0.56-1.14-0.86-1.65
				c-0.09,0.11-0.15,0.18-0.17,0.19L25.77,31.87z"/>
			<path class="st0" d="M17.19,27.68l0.04-0.2c0.05-0.28,0.54-2.75,1.62-4.97c0.49-1.01,1.1-1.94,1.63-2.68
				c-0.18-0.24-0.29-0.38-0.29-0.38l-5.37,2.35c0,0,0.29,2.27,1.25,4.47c0.26,0.6,0.57,1.17,0.87,1.69
				c0.07-0.08,0.12-0.13,0.13-0.15L17.19,27.68z"/>
			<path class="st0" d="M31.21,42.98c-0.92-2.1-2.44-3.95-2.44-3.95l-5.37,2.35c0,0,0.29,2.27,1.25,4.47
				c0.97,2.2,2.46,3.99,2.46,3.99l5.37-2.35C32.48,47.5,32.14,45.08,31.21,42.98z"/>
		</g>
		<path class="st0" d="M14.48,20.56l5.37-2.36c0,0-0.35-2.41-1.27-4.52c-0.92-2.1-2.44-3.95-2.44-3.95l-5.37,2.35
			c0,0,0.29,2.27,1.25,4.47C12.98,18.76,14.48,20.56,14.48,20.56z"/>
	</g>
</g>
</svg>
