<?xml version="1.0" encoding="UTF-8" standalone="no"?>
<!-- Generator: Adobe Illustrator 24.0.1, SVG Export Plug-In . SVG Version: 6.00 Build 0)  -->

<svg
   version="1.1"
   id="Layer_1"
   x="0px"
   y="0px"
   viewBox="0 0 50 50"
   style="enable-background:new 0 0 50 50;"
   xml:space="preserve"
   sodipodi:docname="50x50_RenewableFuels.svg"
   inkscape:version="1.1.1 (3bf5ae0d25, 2021-09-20)"
   xmlns:inkscape="http://www.inkscape.org/namespaces/inkscape"
   xmlns:sodipodi="http://sodipodi.sourceforge.net/DTD/sodipodi-0.dtd"
   xmlns="http://www.w3.org/2000/svg"
   xmlns:svg="http://www.w3.org/2000/svg"><defs
   id="defs387" /><sodipodi:namedview
   id="namedview385"
   pagecolor="#ffffff"
   bordercolor="#666666"
   borderopacity="1.0"
   inkscape:pageshadow="2"
   inkscape:pageopacity="0.0"
   inkscape:pagecheckerboard="0"
   showgrid="false"
   inkscape:zoom="16.64"
   inkscape:cx="24.969952"
   inkscape:cy="15.354567"
   inkscape:window-width="1920"
   inkscape:window-height="1017"
   inkscape:window-x="-8"
   inkscape:window-y="-8"
   inkscape:window-maximized="1"
   inkscape:current-layer="Layer_1" />
<style
   type="text/css"
   id="style342">
	.st0{fill:#233D93;}
</style>
<g
   id="g382"
   transform="matrix(0.85993261,0,0,0.85993261,3.6553857,3.502385)">
	<g
   id="g350">
		<path
   class="st0"
   d="m 21.4,13.52 c 0,1.23 -0.87,2.23 -1.95,2.23 h -1.6 c -1.08,0 -1.95,-1 -1.95,-2.23 v 0 c 0,-1.23 0.88,-2.23 1.95,-2.23 h 1.6 c 1.08,0 1.95,1 1.95,2.23 z"
   id="path344" />
		<path
   class="st0"
   d="m 27.93,13.52 c 0,1.23 -0.87,2.23 -1.95,2.23 h -1.6 c -1.08,0 -1.95,-1 -1.95,-2.23 v 0 c 0,-1.23 0.87,-2.23 1.95,-2.23 h 1.6 c 1.08,0 1.95,1 1.95,2.23 z"
   id="path346" />
		<path
   class="st0"
   d="m 34.45,13.52 c 0,1.23 -0.88,2.23 -1.95,2.23 h -1.6 c -1.08,0 -1.95,-1 -1.95,-2.23 v 0 c 0,-1.23 0.88,-2.23 1.95,-2.23 h 1.6 c 1.08,0 1.95,1 1.95,2.23 z"
   id="path348" />
	</g>
	<g
   id="g354">
		<path
   class="st0"
   d="m 27.93,2.35 c 0,1.24 -0.87,2.23 -1.95,2.23 h -1.6 c -1.08,0 -1.95,-1 -1.95,-2.23 v 0 c 0,-1.23 0.87,-2.23 1.95,-2.23 h 1.6 c 1.08,0 1.95,1 1.95,2.23 z"
   id="path352" />
	</g>
	<g
   id="g362">
		<path
   class="st0"
   d="m 21.4,7.94 c 0,1.23 -0.87,2.23 -1.95,2.23 h -1.6 c -1.08,0 -1.95,-1 -1.95,-2.23 v 0 c 0,-1.23 0.88,-2.23 1.95,-2.23 h 1.6 C 20.53,5.7 21.4,6.7 21.4,7.94 Z"
   id="path356" />
		<path
   class="st0"
   d="m 27.93,7.94 c 0,1.23 -0.87,2.23 -1.95,2.23 h -1.6 c -1.08,0 -1.95,-1 -1.95,-2.23 v 0 c 0,-1.23 0.87,-2.23 1.95,-2.23 h 1.6 c 1.08,-0.01 1.95,0.99 1.95,2.23 z"
   id="path358" />
		<path
   class="st0"
   d="m 34.45,7.94 c 0,1.23 -0.88,2.23 -1.95,2.23 h -1.6 c -1.08,0 -1.95,-1 -1.95,-2.23 v 0 c 0,-1.23 0.88,-2.23 1.95,-2.23 h 1.6 c 1.08,-0.01 1.95,0.99 1.95,2.23 z"
   id="path360" />
	</g>
	<g
   id="g370">
		<path
   class="st0"
   d="m 21.4,19.11 c 0,1.24 -0.87,2.24 -1.95,2.24 h -1.6 c -1.08,0 -1.95,-1 -1.95,-2.24 v 0 c 0,-1.23 0.88,-2.23 1.95,-2.23 h 1.6 c 1.08,-0.01 1.95,0.99 1.95,2.23 z"
   id="path364" />
		<path
   class="st0"
   d="m 27.93,19.11 c 0,1.24 -0.87,2.24 -1.95,2.24 h -1.6 c -1.08,0 -1.95,-1 -1.95,-2.24 v 0 c 0,-1.23 0.87,-2.23 1.95,-2.23 h 1.6 c 1.08,-0.01 1.95,0.99 1.95,2.23 z"
   id="path366" />
		<path
   class="st0"
   d="m 34.45,19.11 c 0,1.24 -0.88,2.24 -1.95,2.24 h -1.6 c -1.08,0 -1.95,-1 -1.95,-2.24 v 0 c 0,-1.23 0.88,-2.23 1.95,-2.23 h 1.6 c 1.08,-0.01 1.95,0.99 1.95,2.23 z"
   id="path368" />
	</g>
	<g
   id="g380">
		<path
   class="st0"
   d="m 17.86,26.92 h 1.6 c 1.08,0 1.95,-1 1.95,-2.23 0,-1.23 -0.87,-2.23 -1.95,-2.23 h -1.6 c -1.08,0 -1.95,1 -1.95,2.23 -0.01,1.23 0.87,2.23 1.95,2.23 z"
   id="path372" />
		<path
   class="st0"
   d="m 24.38,26.92 h 1.6 c 1.08,0 1.95,-1 1.95,-2.23 0,-1.23 -0.87,-2.23 -1.95,-2.23 h -1.6 c -1.08,0 -1.95,1 -1.95,2.23 0,1.23 0.87,2.23 1.95,2.23 z"
   id="path374" />
		<path
   class="st0"
   d="m 24.38,32.51 h 1.6 c 1.08,0 1.95,-1 1.95,-2.24 0,-1.23 -0.87,-2.23 -1.95,-2.23 h -1.6 c -1.08,0 -1.95,1 -1.95,2.23 0,1.24 0.87,2.24 1.95,2.24 z"
   id="path376" />
		<path
   class="st0"
   d="m 42.95,9.17 c -0.82,-0.81 -4.02,7.17 -8.51,15.68 0,-0.05 0.01,-0.1 0.01,-0.15 0,-1.23 -0.88,-2.23 -1.95,-2.23 h -1.6 c -1.08,0 -1.95,1 -1.95,2.23 0,1.23 0.88,2.23 1.95,2.23 h 1.6 c 0.36,0 0.7,-0.12 1,-0.32 -0.27,0.49 -0.54,0.98 -0.81,1.46 -0.06,-0.01 -0.12,-0.02 -0.18,-0.02 h -1.6 c -1.08,0 -1.95,1 -1.95,2.23 0,0.92 0.48,1.71 1.18,2.06 -0.72,1.13 -1.47,2.23 -2.23,3.27 -0.11,-1.11 -0.93,-1.98 -1.93,-1.98 h -1.6 c -1.05,0 -1.9,0.96 -1.94,2.14 -0.96,-1.15 -1.88,-2.25 -2.74,-3.28 0.96,-0.14 1.71,-1.07 1.71,-2.21 0,-1.23 -0.87,-2.23 -1.95,-2.23 h -1.6 c -0.53,0 -1.02,0.25 -1.37,0.64 -3.97,-4.63 -6.4,-7.08 -7.21,-6.26 -0.85,0.85 3.96,6.44 4.66,14.01 0.37,3.94 1.44,5.08 2.53,6.56 0.94,1.08 2.21,2.02 3.82,2.66 v 4.23 h 9.22 v -3.9 c 1.97,-0.54 3.55,-1.45 4.81,-2.71 1.08,-1.24 2.07,-2.32 1.93,-6.92 -0.22,-7.6 7.55,-26.34 6.7,-27.19 z"
   id="path378" />
	</g>
</g>
</svg>
