<?xml version="1.0" encoding="utf-8"?>
<!-- Generator: Adobe Illustrator 24.0.1, SVG Export Plug-In . SVG Version: 6.00 Build 0)  -->
<svg version="1.1" id="Layer_1" xmlns="http://www.w3.org/2000/svg" xmlns:xlink="http://www.w3.org/1999/xlink" x="0px" y="0px"
	 viewBox="0 0 50 50" style="enable-background:new 0 0 50 50;" xml:space="preserve">
<style type="text/css">
	.st0{fill:#FFFFFF;}
</style>
<g>
	<path class="st0" d="M44.7,32.49c4.96-2.88,4.85-12.52-0.34-21.52c-4.43-7.69-10.4-10.4-10.4-10.4c-0.52-0.36-1.39-0.39-1.94-0.07
		l-5.08,2.93c-0.54,0.31-0.73,1.02-0.42,1.56l3.74,6.48L0.87,28.42c-0.63,0.36-0.85,1.17-0.48,1.8l2.66,4.62v9.03H0.21v3.95H49.8
		v-3.95h-5.1V32.49z M5.72,33.17C4.77,33.17,4,32.4,4,31.44s0.77-1.73,1.73-1.73c0.95,0,1.73,0.78,1.73,1.73S6.68,33.17,5.72,33.17z
		 M14.11,43.86H8.09v-8.39l9.78-5.65L14.11,43.86z M42.18,43.86H37.5l-5.21-19.44l-5.65,3.26l4.33,16.18H20.64l4.96-18.49l9.53-5.5
		l7.06,12.23L42.18,43.86L42.18,43.86z"/>
</g>
</svg>
