<?xml version="1.0" encoding="utf-8"?>
<!-- Generator: Adobe Illustrator 24.0.1, SVG Export Plug-In . SVG Version: 6.00 Build 0)  -->
<svg version="1.1" id="Layer_1" xmlns="http://www.w3.org/2000/svg" xmlns:xlink="http://www.w3.org/1999/xlink" x="0px" y="0px"
	 viewBox="0 0 50 50" style="enable-background:new 0 0 50 50;" xml:space="preserve">
<style type="text/css">
	.st0{fill:#FFFFFF;}
</style>
<g>
	<path class="st0" d="M16.13,47.42c2.51,1.54,5.75,2.39,9.11,2.39c3.37,0,6.6-0.85,9.11-2.39c1.91-1.17,3.04-3.4,3.04-5.97v-24.3
		c0-1.99-0.76-4.01-2.14-5.68c-1.43-1.73-1.68-2.78-1.64-3.35c0.01-0.14,0.01-0.27,0.01-0.41c0.85-0.31,1.52-0.99,1.68-1.89
		c0.16-0.93,0.15-1.88-0.01-2.81c-0.19-1.06-1.08-1.83-2.13-2.06c-4.98-1.09-10.83-1.09-15.81-0.01c-1.05,0.23-1.92,1.03-2.08,2.09
		c-0.14,0.92-0.14,1.84-0.01,2.76c0.13,0.9,0.77,1.61,1.61,1.92c0,0.14,0.01,0.28,0.02,0.42c0.08,0.8-0.46,1.9-1.61,3.28
		c-1.42,1.7-2.2,3.73-2.2,5.73v24.29C13.08,44.01,14.22,46.25,16.13,47.42z M24.99,1.44c3.14,0,5.68,0.49,5.68,1.1
		c0,0.24-0.4,0.46-1.08,0.64c-1.03,0.28-2.71,0.46-4.6,0.46c-1.83,0-3.45-0.17-4.49-0.43c-0.75-0.18-1.2-0.42-1.2-0.67
		C19.3,1.93,21.85,1.44,24.99,1.44z M15.67,17.15c0-1.5,0.63-2.92,1.59-4.08c1.36-1.63,2.26-3.28,2.21-4.91
		c3.8,0.46,7.77,0.46,11.57,0c-0.03,1.64,0.87,3.32,2.22,4.96c0.95,1.14,1.55,2.55,1.55,4.04v24.29c0,1.48-0.55,2.99-1.81,3.76
		c-2.18,1.33-4.97,2-7.76,2s-5.58-0.67-7.76-2c-1.26-0.78-1.81-2.28-1.81-3.76V17.15z"/>
	<path class="st0" d="M19.54,42.94c3.2,1.96,8.2,1.96,11.41,0c0.93-0.57,1.33-1.68,1.33-2.77V24c0-0.44-0.53-0.62-0.92-0.41
		c-1.27,0.69-3.53,1.15-6.11,1.15s-4.84-0.46-6.11-1.15c-0.39-0.21-0.92-0.03-0.92,0.41v16.18C18.21,41.27,18.61,42.37,19.54,42.94z
		"/>
	<path class="st0" d="M25.3,23.05c2.26,0,4.19-0.47,5-1.13c0.2-0.17,0.28-0.44,0.28-0.7s-0.07-0.53-0.28-0.7
		c-0.81-0.67-2.74-1.14-5-1.14s-4.19,0.47-5,1.14c-0.2,0.17-0.28,0.44-0.28,0.7s0.08,0.53,0.28,0.7
		C21.12,22.58,23.05,23.05,25.3,23.05z"/>
</g>
</svg>
