<svg xmlns="http://www.w3.org/2000/svg" width="48" height="48" viewBox="0 0 48 48"><defs><style>.a{fill:rgba(255,255,255,0);}.b{fill:#4b738b;}</style></defs><g transform="translate(-446 -188)"><rect class="a" width="48" height="48" transform="translate(446 188)"/><g transform="translate(449.732 191.11)"><path class="b" d="M12.529,18.76c-.008,0-.008.016,0,.016S12.537,18.76,12.529,18.76Z" transform="translate(-2.335 -3.404)"/><g transform="translate(8.599 14.016)"><path class="b" d="M33.29,32.352a3.6,3.6,0,0,1-1.182-.372,7.245,7.245,0,0,1-.834-.656c-.259-.178-.51-.348-.769-.494a5.306,5.306,0,0,0,.729-.4c1.983-1.287,3.6-3.991,3.149-6.4a.081.081,0,0,0-.154,0,9.871,9.871,0,0,1-1.085,3.238,7.418,7.418,0,0,1-2.6,2.558,4.5,4.5,0,0,1-1.279.47c.478-.34,3.181-2.064,3.513-3.983A17.073,17.073,0,0,0,33.112,23a7,7,0,0,0-.818-3.278,2.926,2.926,0,0,0-.89-1.02c-.324-.243-.939-.178-1.141-1.595-.008-.057-.016.591-.024.648-.089.729.7,1.263,1.149,1.708a3.719,3.719,0,0,1,.64,1.6,8.505,8.505,0,0,1,.227,1.692,8.715,8.715,0,0,1-.235,3.206,13.232,13.232,0,0,1-.9,1.87,8.463,8.463,0,0,1-3.084,2.25,3.649,3.649,0,0,1-1.522.267c-.138-.04-.283-.089-.429-.146q.073-.267.121-.486a8.845,8.845,0,0,0-.049-2.809,12.147,12.147,0,0,0-.575-2.623,5.469,5.469,0,0,1-.413-1.449c-.008-.1,0-.2,0-.3.008-.162.024-.324.024-.494a5.887,5.887,0,0,0-.154-1.684c-.146-.575-.534-1.036-.631-1.635-.008-.032-.049-.016-.049.008a5.041,5.041,0,0,0,.267,1.433,6.64,6.64,0,0,1-.024,1.878,8.275,8.275,0,0,1-.356,1.878c-.2.631-.526,1.23-.769,1.846a8.527,8.527,0,0,0-.664,2.922,5,5,0,0,0-1.595-1.182,17.76,17.76,0,0,0-4.039-1.1,8.977,8.977,0,0,1-4.363-2.121c-.3-.3-.494-.672-.777-.979a5.989,5.989,0,0,1-.809-1.23,5.776,5.776,0,0,1-.672-2.356,8.939,8.939,0,0,0,1.6,4.428A8.26,8.26,0,0,0,16.429,27a37.984,37.984,0,0,1,4.08,1.53A3.887,3.887,0,0,1,21.966,29.7a4.045,4.045,0,0,1,.34.745,8.137,8.137,0,0,1-1.085.154,7.36,7.36,0,0,1-2.258-.316,11.726,11.726,0,0,1-2.169-.882,10.966,10.966,0,0,1-1.935-1.125,12.169,12.169,0,0,1-2.38-2.688,10.923,10.923,0,0,1-.947-1.668,6.037,6.037,0,0,1-.575-1.846.016.016,0,1,0-.032,0,4.577,4.577,0,0,0,.162,1.651,10.776,10.776,0,0,0,.777,1.927,10.033,10.033,0,0,0,2.437,3.2,11.686,11.686,0,0,0,2.1,1.255,13.656,13.656,0,0,0,2.364.963,8.3,8.3,0,0,0,1.546.308,4.3,4.3,0,0,0-.874,1.23c-.364.607-.72,1.222-1.117,1.813a4.071,4.071,0,0,1-.534.639c-.251.251-.567.4-.834.623a8.372,8.372,0,0,1-2.088,1.239,2.966,2.966,0,0,1-.931.291c-.267.024-.526.049-.793.065-.51.032-1.279.13-1.611-.364-.032-.049-.1-.008-.073.049a1.332,1.332,0,0,0,.931.591,6.549,6.549,0,0,0,1.635.194A5.525,5.525,0,0,0,16,37.3a11.031,11.031,0,0,0,2.178-1.109,7.081,7.081,0,0,0,2.169-2.509.093.093,0,0,0,.089-.073l.049-.17c.049-.1.105-.186.154-.275a2.8,2.8,0,0,1,2.283-.664,7.2,7.2,0,0,1,1.595.3,3.308,3.308,0,0,1,.648.243,1.112,1.112,0,0,0,.291.089c.17.178.332.356.494.542.146.372.34.737.518,1.093a10.452,10.452,0,0,1,.542,1.368,10.987,10.987,0,0,1,.389,1.457,11.465,11.465,0,0,1-.065,3.133,3.341,3.341,0,0,0,.259,2.048.833.833,0,0,0,1.158.38c1.149-.656,1.271-2.275,1.344-3.448a7.879,7.879,0,0,0-.607-3.61,11.67,11.67,0,0,0-1.8-2.793,4.028,4.028,0,0,0-1.044-.915c-.008-.008-.016-.008-.024-.016l-.283-.283a5.678,5.678,0,0,1,1.125-.073c.34,0,.664.024,1-.008a10.384,10.384,0,0,1,1.1-.178c1.255.032,2.445.68,3.716.6C33.355,32.449,33.355,32.36,33.29,32.352ZM24.742,29.43c-.057.121-.105.235-.154.356a1.526,1.526,0,0,0-.275.016c-.032-.1-.057-.186-.081-.275a8.572,8.572,0,0,1,.389-3.748c.073-.324.154-.639.219-.963a16.811,16.811,0,0,1,.2,2.113A5.8,5.8,0,0,1,24.742,29.43Z" transform="translate(-10.56 -17.106)"/></g><path class="b" d="M38.787,9.994a7.732,7.732,0,0,0-4.865-1.927c-1.862.049-3.359,1.239-4.768,2.323h0a7.318,7.318,0,0,0-3.627-2.04c-.008-.008-.016-.016-.024-.016a2.92,2.92,0,0,0-1.336-.34,4.407,4.407,0,0,0-1.748.178,9.434,9.434,0,0,0-3,1.6,7.456,7.456,0,0,0-1.975,2.777,7.8,7.8,0,0,0-.7,2.008,4.1,4.1,0,0,0,.243,3.473.129.129,0,0,0,.235-.1,6.15,6.15,0,0,1,.024-3.044,8.5,8.5,0,0,1,1.684-2.728,13.239,13.239,0,0,1,1.222-1.336,27.548,27.548,0,0,1,2.42-1.514,3.448,3.448,0,0,1,1.457-.453c.445-.032.882.049,1.319.024a.061.061,0,0,0,.04-.008A7.325,7.325,0,0,1,29.316,11.2a8.869,8.869,0,0,1,1.829,5.229.049.049,0,1,0,.1,0,9.2,9.2,0,0,0-1.651-5.513c-.138-.178-.291-.348-.445-.518a10.462,10.462,0,0,1,3.327-1.538,5.539,5.539,0,0,1,3.489.51,10.444,10.444,0,0,1,4.7,4.76,10.041,10.041,0,0,1-1.481,11.519,9.439,9.439,0,0,1-2.655,1.967,7.906,7.906,0,0,1-1.595.55c-.251.065-.51.121-.769.178a2.53,2.53,0,0,0-.777.429.26.26,0,0,0,.065.47,2.547,2.547,0,0,0,.729.154,6.432,6.432,0,0,0,.785-.162,12.037,12.037,0,0,0,1.6-.542,11.845,11.845,0,0,0,2.882-1.611,10.332,10.332,0,0,0,3.586-5.415C44.194,17.376,42.138,12.681,38.787,9.994Z" transform="translate(-3.086 -1.349)"/><path class="b" d="M28.092,3.432a3.454,3.454,0,0,0-1.562-.453c-.372-.04-.745-.186-1.125-.227A7.992,7.992,0,0,0,20.013.89a8.815,8.815,0,0,0-4.784,1.239c-1.166.745-2.93,2.137-2.623,3.74a6.124,6.124,0,0,0-2.428-.842C7.79,4.719,5.523,6.144,3.912,7.852a13.014,13.014,0,0,0-3.5,6.225,10.066,10.066,0,0,0,1.611,7.115,9.312,9.312,0,0,0,2.485,2.7,9.238,9.238,0,0,0,1.514.842,10.668,10.668,0,0,0,1.805.437A.084.084,0,0,0,7.871,25a5.957,5.957,0,0,1-1.4-.826c-.437-.324-.915-.567-1.336-.923a10.357,10.357,0,0,1-2.218-2.42A8.893,8.893,0,0,1,1.6,13.688,12.586,12.586,0,0,1,5.6,7.811c1.854-1.538,4.355-2.485,6.622-1.376a9.961,9.961,0,0,1,2.9,2.477c.04.04.105-.016.073-.057a8.376,8.376,0,0,0-2.048-2.574q-.182-.146-.364-.267c.308-1.57,1.8-2.623,3.076-3.295a8.733,8.733,0,0,1,4.258-.907,7.639,7.639,0,0,1,3.594.882,7.507,7.507,0,0,1,2.72,2.793c.105.17.324.057.291-.13A4.7,4.7,0,0,0,26.295,4c.267.032.518.049.7.057a2.235,2.235,0,0,1,2.048,1.967.127.127,0,0,0,.251.032A2.493,2.493,0,0,0,28.092,3.432Z" transform="translate(0 0)"/><path class="b" d="M15.209,35.561c-.785.389-1.522.866-2.323,1.23a11.445,11.445,0,0,1-2.526.688,6.143,6.143,0,0,1-4.242-.648,7.105,7.105,0,0,1-3.181-3.44c-.648-1.562-.073-3.222.534-4.687a.05.05,0,0,0-.073-.057A5.13,5.13,0,0,0,1.7,30.7,4.515,4.515,0,0,0,1.536,33.5c.4,1.878,2.129,3.424,3.707,4.339a7.469,7.469,0,0,0,5.043.89,7.025,7.025,0,0,0,2.7-1.2,16.609,16.609,0,0,0,2.323-1.862C15.37,35.618,15.29,35.521,15.209,35.561Z" transform="translate(-0.215 -5.287)"/><path class="b" d="M44.193,17.77h0a10.234,10.234,0,0,1,.243,3.578,12.329,12.329,0,0,1-.9,3.44c-.065.162.178.235.267.113a6.124,6.124,0,0,0,.971-3.416A11.615,11.615,0,0,0,44.193,17.77Z" transform="translate(-8.241 -3.216)"/><path class="b" d="M6.926,23.8a8.921,8.921,0,0,1-1.449-4.873,14.407,14.407,0,0,1,.389-2.938,3.777,3.777,0,0,1,1.028-2c.04-.04-.016-.113-.057-.073A3.992,3.992,0,0,0,5.7,15.73a9.687,9.687,0,0,0-.526,3.036A7.346,7.346,0,0,0,6.8,23.9C6.861,23.963,6.974,23.874,6.926,23.8Z" transform="translate(-0.933 -2.48)"/><path class="b" d="M10.8,36.891a14.4,14.4,0,0,1-3.044-.672,4.047,4.047,0,0,1-2.428-2.453c-.008-.024-.032-.016-.032.008.575,2.275,3.3,3.635,5.5,3.295C10.9,37.069,10.9,36.907,10.8,36.891Z" transform="translate(-0.959 -6.261)"/><path class="b" d="M34.618,21.277a14.472,14.472,0,0,0-1.392-3.5c-.049-.1-.178-.016-.138.081a17.254,17.254,0,0,1,1.174,3.181,9.425,9.425,0,0,1-.17,3.8c-.024.105.13.178.178.073a5.413,5.413,0,0,0,.47-1.708A7.081,7.081,0,0,0,34.618,21.277Z" transform="translate(-6.251 -3.209)"/><path class="b" d="M17.836,20.167c-.389-.073-.639.243-.89.5a4.2,4.2,0,0,0-.777,1.069,3.323,3.323,0,0,0-.291,2.088,4.871,4.871,0,0,0,.631,1.757c.138.227.656.842.939.478a.015.015,0,0,0,0-.024,2.247,2.247,0,0,1-.413-.267,1.731,1.731,0,0,1-.348-.648,6.242,6.242,0,0,1-.348-1.441,2.844,2.844,0,0,1,.324-1.668,3.494,3.494,0,0,1,.631-.826c.235-.235.656-.372.72-.729A.252.252,0,0,0,17.836,20.167Z" transform="translate(-2.964 -3.671)"/><path class="b" d="M29.574,5.332a3.318,3.318,0,0,0-2.882-.89.105.105,0,0,0,0,.2,11.8,11.8,0,0,1,2.55.85,4.841,4.841,0,0,1,2.04,2.477c0,.008.016.008.008,0A5.543,5.543,0,0,0,29.574,5.332Z" transform="translate(-5.02 -0.662)"/></g></g></svg>