<svg xmlns="http://www.w3.org/2000/svg" width="48" height="48" viewBox="0 0 48 48"><defs><style>.a{fill:rgba(255,255,255,0);}.b{fill:#9e3222;}</style></defs><g transform="translate(-446 -386)"><rect class="a" width="48" height="48" transform="translate(446 386)"/><g transform="translate(449.79 390.721)"><path class="b" d="M36.1,26.261c4-2.323,3.912-10.1-.274-17.358A20.922,20.922,0,0,0,27.433.514,1.592,1.592,0,0,0,25.868.457l-4.1,2.363a.93.93,0,0,0-.339,1.258l3.017,5.227L.742,22.978A1.057,1.057,0,0,0,.355,24.43L2.5,28.156V35.44H.21v3.186h40V35.44H36.1Zm-31.442.548a1.4,1.4,0,1,1,1.4-1.4A1.389,1.389,0,0,1,4.654,26.809Zm6.767,8.623H6.566V28.664l7.889-4.557Zm22.642,0H30.289l-4.2-15.681-4.557,2.63,3.493,13.051H16.689l4-14.914,7.687-4.436,5.695,9.865v9.486Z"/></g></g></svg>