<?xml version="1.0" encoding="utf-8"?>
<!-- Generator: Adobe Illustrator 20.1.0, SVG Export Plug-In . SVG Version: 6.00 Build 0)  -->
<svg version="1.1" id="Layer_1" xmlns="http://www.w3.org/2000/svg" xmlns:xlink="http://www.w3.org/1999/xlink" x="0px" y="0px"
	 viewBox="0 0 50 50" style="enable-background:new 0 0 50 50;" xml:space="preserve">
<style type="text/css">
	.st0{fill-rule:evenodd;clip-rule:evenodd;fill:#675A4D;}
</style>
<g>
	<path class="st0" d="M45.6,20.3c-0.1,0.4-0.2,0.8-0.2,1.2c-0.8,5.1-3.7,8.4-8.5,10.2c-2.6,1-3.7,0-3.5-3c-0.1,0.2-0.2,0.3-0.3,0.4
		c-0.7,2.1-2.3,2.6-4.2,0.5c-3.1-3.4-4-7.5-2.8-11.9c1-3.7,3.2-6.7,6.2-9.1c1.4-1.1,2.9-2,4.8-1.6c1.2,0.2,1.5,0.6,1.1,1.8
		c-1,3.4-1.9,6.7-3.1,10c-1,3-1.8,5.9-1.6,8.9c1.7-2.6,2.6-5.6,3.1-8.9c0.3-1.8,0.9-3.6,1.3-5.4c0.3-1.4,0.6-2.8,0.9-4.2
		c0.3-1.4,0.9-1.9,2.1-1.1c0.9,0.6,2,1.3,2.4,2.3c0.8,1.8,1.3,3.8,1.8,5.7c0.1,0.4,0.2,0.8,0.2,1.2C45.6,18.3,45.6,19.3,45.6,20.3z"
		/>
	<path class="st0" d="M17.2,38.9c-0.1-0.6-0.3-1.2-0.3-1.8c0.1-2.5-0.8-4.8-1.5-7.1c-0.8-2.5-1.4-5-2.2-7.6c-0.3-1-0.7-1.9-1-2.9
		c-0.2-0.8,0.1-1.2,0.9-1.4c1.4-0.3,2.7,0,3.9,0.8c2.6,1.6,4.4,3.9,5.9,6.5c2.6,4.6,2.7,9.1,0,13.6c-0.5,0.8-1.2,1.6-1.9,2.3
		c-1.4,1.2-2.6,0.9-3.4-0.7c-0.1-0.3-0.3-0.6-0.4-0.9C17.2,39.3,17.2,39.1,17.2,38.9z"/>
	<path class="st0" d="M17.2,38.9c0,0.2,0,0.4,0,0.6c0,0.3,0,0.5,0,0.8c0.1,2.3-0.8,3-3,2.5C9.5,41.7,5.6,37,5.2,31.6
		c-0.3-3.5,0.1-7,1.9-10.2c0.6-1.1,1.5-2,2.7-2.4c1.1-0.4,1.6-0.1,1.8,1c0.9,4.2,1.9,8.3,2.8,12.5C14.9,34.8,15.9,36.9,17.2,38.9z"
		/>
</g>
</svg>
