<svg xmlns="http://www.w3.org/2000/svg" width="48" height="48" viewBox="0 0 48 48"><defs><style>.a{fill:rgba(255,255,255,0);}.b{fill:#287151;}</style></defs><g transform="translate(-842 -980)"><rect class="a" width="48" height="48" transform="translate(842 980)"/><g transform="translate(843.23 983.9)"><g transform="translate(9.77 0.1)"><path class="b" d="M14.46,35.965,18.7,38.032A15.091,15.091,0,0,0,20.806,34.9a14.829,14.829,0,0,0,1.15-3.547L17.717,29.29a15.715,15.715,0,0,0-2.091,3.088A16.365,16.365,0,0,0,14.46,35.965Z" transform="translate(-10.688 -5.813)"/><path class="b" d="M19.15,26.355l4.239,2.067A15.091,15.091,0,0,0,25.5,25.294a14.829,14.829,0,0,0,1.15-3.547l-4.23-2.067a15.715,15.715,0,0,0-2.091,3.088A16.269,16.269,0,0,0,19.15,26.355Z" transform="translate(-11.606 -3.932)"/><path class="b" d="M9.77,45.565l4.239,2.067A15.091,15.091,0,0,0,16.116,44.5a14.829,14.829,0,0,0,1.15-3.547L13.027,38.89a15.715,15.715,0,0,0-2.091,3.088A16.365,16.365,0,0,0,9.77,45.565Z" transform="translate(-9.77 -7.692)"/><g transform="translate(9.749)"><path class="b" d="M29.925,8.286c-2.147,4.037-3.394,7.568-2.783,7.882s2.839-2.71,4.987-6.756A28.756,28.756,0,0,0,34.911,1.53,29.308,29.308,0,0,0,29.925,8.286Z" transform="translate(-22.889 -0.38)"/><path class="b" d="M22.268,7.556c.74,4.158,1.858,7.568,2.5,7.616s.571-3.289-.161-7.448A30.665,30.665,0,0,0,22.108.1,23.667,23.667,0,0,0,22.268,7.556Z" transform="translate(-21.892 -0.1)"/><path class="b" d="M35.959,15c-4.295,1.962-7.448,3.965-7.037,4.456s4.222-.7,8.509-2.662c.587-.265,1.134-.539,1.657-.82L36.626,14.7C36.4,14.8,36.176,14.893,35.959,15Z" transform="translate(-23.261 -2.958)"/><path class="b" d="M38.53,14.66l2.461,1.263a28.192,28.192,0,0,1,.024,6.41A36.327,36.327,0,0,1,38.53,14.66Z" transform="translate(-25.148 -2.95)"/></g></g><g transform="translate(10.574 7.845)"><g transform="translate(3.257 7.818)"><path class="b" d="M25.134,31.805l-.024.129a16.5,16.5,0,0,1-1.287,3.989,15.7,15.7,0,0,1-1.3,2.155c.153.2.249.314.249.314l4.319-1.89a16.336,16.336,0,0,0-1.021-3.635,13.69,13.69,0,0,0-.692-1.327,1.051,1.051,0,0,1-.137.153Z" transform="translate(-16.327 -21.816)"/><path class="b" d="M16.726,26.069l.032-.161a17.578,17.578,0,0,1,1.3-4,15.107,15.107,0,0,1,1.311-2.155c-.145-.193-.233-.306-.233-.306L14.82,21.34a14.9,14.9,0,0,0,1.005,3.6,13.424,13.424,0,0,0,.7,1.359,1.569,1.569,0,0,0,.1-.121Z" transform="translate(-14.82 -19.45)"/><path class="b" d="M29.681,42.207a15.649,15.649,0,0,0-1.962-3.177L23.4,40.92a14.9,14.9,0,0,0,1.005,3.6,15.375,15.375,0,0,0,1.979,3.209l4.319-1.89A15.838,15.838,0,0,0,29.681,42.207Z" transform="translate(-16.499 -23.282)"/></g><path class="b" d="M13.754,18.44l4.319-1.9a16.336,16.336,0,0,0-1.021-3.635A15.649,15.649,0,0,0,15.089,9.73L10.77,11.62a14.9,14.9,0,0,0,1.005,3.6A15.112,15.112,0,0,0,13.754,18.44Z" transform="translate(-10.77 -9.73)"/></g></g></g></svg>