<?xml version="1.0" encoding="utf-8"?>
<!-- Generator: Adobe Illustrator 24.0.1, SVG Export Plug-In . SVG Version: 6.00 Build 0)  -->
<svg version="1.1" id="Layer_1" xmlns="http://www.w3.org/2000/svg" xmlns:xlink="http://www.w3.org/1999/xlink" x="0px" y="0px"
	 viewBox="0 0 50 50" style="enable-background:new 0 0 50 50;" xml:space="preserve">
<style type="text/css">
	.st0{fill:#FFFFFF;}
</style>
<g>
	<g>
		<path class="st0" d="M21.4,13.52c0,1.23-0.87,2.23-1.95,2.23h-1.6c-1.08,0-1.95-1-1.95-2.23l0,0c0-1.23,0.88-2.23,1.95-2.23h1.6
			C20.53,11.29,21.4,12.29,21.4,13.52L21.4,13.52z"/>
		<path class="st0" d="M27.93,13.52c0,1.23-0.87,2.23-1.95,2.23h-1.6c-1.08,0-1.95-1-1.95-2.23l0,0c0-1.23,0.87-2.23,1.95-2.23h1.6
			C27.06,11.29,27.93,12.29,27.93,13.52L27.93,13.52z"/>
		<path class="st0" d="M34.45,13.52c0,1.23-0.88,2.23-1.95,2.23h-1.6c-1.08,0-1.95-1-1.95-2.23l0,0c0-1.23,0.88-2.23,1.95-2.23h1.6
			C33.58,11.29,34.45,12.29,34.45,13.52L34.45,13.52z"/>
	</g>
	<g>
		<path class="st0" d="M27.93,2.35c0,1.24-0.87,2.23-1.95,2.23h-1.6c-1.08,0-1.95-1-1.95-2.23l0,0c0-1.23,0.87-2.23,1.95-2.23h1.6
			C27.06,0.12,27.93,1.12,27.93,2.35L27.93,2.35z"/>
	</g>
	<g>
		<path class="st0" d="M21.4,7.94c0,1.23-0.87,2.23-1.95,2.23h-1.6c-1.08,0-1.95-1-1.95-2.23l0,0c0-1.23,0.88-2.23,1.95-2.23h1.6
			C20.53,5.7,21.4,6.7,21.4,7.94L21.4,7.94z"/>
		<path class="st0" d="M27.93,7.94c0,1.23-0.87,2.23-1.95,2.23h-1.6c-1.08,0-1.95-1-1.95-2.23l0,0c0-1.23,0.87-2.23,1.95-2.23h1.6
			C27.06,5.7,27.93,6.7,27.93,7.94L27.93,7.94z"/>
		<path class="st0" d="M34.45,7.94c0,1.23-0.88,2.23-1.95,2.23h-1.6c-1.08,0-1.95-1-1.95-2.23l0,0c0-1.23,0.88-2.23,1.95-2.23h1.6
			C33.58,5.7,34.45,6.7,34.45,7.94L34.45,7.94z"/>
	</g>
	<g>
		<path class="st0" d="M21.4,19.11c0,1.24-0.87,2.24-1.95,2.24h-1.6c-1.08,0-1.95-1-1.95-2.24l0,0c0-1.23,0.88-2.23,1.95-2.23h1.6
			C20.53,16.87,21.4,17.87,21.4,19.11L21.4,19.11z"/>
		<path class="st0" d="M27.93,19.11c0,1.24-0.87,2.24-1.95,2.24h-1.6c-1.08,0-1.95-1-1.95-2.24l0,0c0-1.23,0.87-2.23,1.95-2.23h1.6
			C27.06,16.87,27.93,17.87,27.93,19.11L27.93,19.11z"/>
		<path class="st0" d="M34.45,19.11c0,1.24-0.88,2.24-1.95,2.24h-1.6c-1.08,0-1.95-1-1.95-2.24l0,0c0-1.23,0.88-2.23,1.95-2.23h1.6
			C33.58,16.87,34.45,17.87,34.45,19.11L34.45,19.11z"/>
	</g>
	<g>
		<path class="st0" d="M17.86,26.92h1.6c1.08,0,1.95-1,1.95-2.23s-0.87-2.23-1.95-2.23h-1.6c-1.08,0-1.95,1-1.95,2.23
			C15.9,25.92,16.78,26.92,17.86,26.92z"/>
		<path class="st0" d="M24.38,26.92h1.6c1.08,0,1.95-1,1.95-2.23s-0.87-2.23-1.95-2.23h-1.6c-1.08,0-1.95,1-1.95,2.23
			C22.43,25.92,23.3,26.92,24.38,26.92z"/>
		<path class="st0" d="M24.38,32.51h1.6c1.08,0,1.95-1,1.95-2.24c0-1.23-0.87-2.23-1.95-2.23h-1.6c-1.08,0-1.95,1-1.95,2.23
			C22.43,31.51,23.3,32.51,24.38,32.51z"/>
		<path class="st0" d="M42.95,9.17c-0.82-0.81-4.02,7.17-8.51,15.68c0-0.05,0.01-0.1,0.01-0.15c0-1.23-0.88-2.23-1.95-2.23h-1.6
			c-1.08,0-1.95,1-1.95,2.23s0.88,2.23,1.95,2.23h1.6c0.36,0,0.7-0.12,1-0.32c-0.27,0.49-0.54,0.98-0.81,1.46
			c-0.06-0.01-0.12-0.02-0.18-0.02h-1.6c-1.08,0-1.95,1-1.95,2.23c0,0.92,0.48,1.71,1.18,2.06c-0.72,1.13-1.47,2.23-2.23,3.27
			c-0.11-1.11-0.93-1.98-1.93-1.98h-1.6c-1.05,0-1.9,0.96-1.94,2.14c-0.96-1.15-1.88-2.25-2.74-3.28c0.96-0.14,1.71-1.07,1.71-2.21
			c0-1.23-0.87-2.23-1.95-2.23h-1.6c-0.53,0-1.02,0.25-1.37,0.64c-3.97-4.63-6.4-7.08-7.21-6.26c-0.85,0.85,3.96,6.44,4.66,14.01
			c0.37,3.94,1.44,5.08,2.53,6.56c0.94,1.08,2.21,2.02,3.82,2.66v4.23h9.22v-3.9c1.97-0.54,3.55-1.45,4.81-2.71
			c1.08-1.24,2.07-2.32,1.93-6.92C36.03,28.76,43.8,10.02,42.95,9.17z"/>
	</g>
</g>
</svg>
