<svg xmlns="http://www.w3.org/2000/svg" width="48" height="48" viewBox="0 0 48 48"><defs><style>.a{fill:rgba(255,255,255,0);}.b{fill:#c15527;fill-rule:evenodd;}</style></defs><g transform="translate(-50 -782)"><rect class="a" width="48" height="48" transform="translate(50 782)"/><g transform="translate(53.73 783.901)"><path class="b" d="M39.935,22.758A3.432,3.432,0,0,1,37.6,19.01a24.707,24.707,0,0,0-.259-4.087,4.044,4.044,0,0,0-2.274-3.253c1.157,3.2.178,6.24-.4,9.291a1.849,1.849,0,0,0,.275,1.635A8.364,8.364,0,0,1,36.73,28.86a48.067,48.067,0,0,0-.024,5.066c.008.567-.194.777-.761.761-1.975-.032-1.7.162-1.708-1.651-.008-1.4.024-2.8-.024-4.192a1.56,1.56,0,0,0-.469-1.02c-1.384-1.206-2.792-2.379-4.241-3.5a2.377,2.377,0,0,0-1.343-.477c-3.059-.04-6.118-.049-9.178.016a2.57,2.57,0,0,0-1.384.7c-1.36,1.141-1.424,2.768-1.562,4.37-.146,1.659-.364,3.3-.494,4.953-.049.639-.267.906-.9.817a2.861,2.861,0,0,0-.7,0c-.55.065-.777-.138-.793-.72-.057-1.926-.049-3.86-.291-5.754a12.962,12.962,0,0,0-1.1-3.173c-.081-.194-.534-.316-.826-.316-1.19.008-2.387.04-3.577.162a1.43,1.43,0,0,0-.9.647A10.558,10.558,0,0,1,2.3,29.426a1.229,1.229,0,0,1-1.578-.251A1.712,1.712,0,0,1,.391,27.97c.089-.955.324-1.894.453-2.849a6.517,6.517,0,0,0-.032-1.19c-.008-.17-.121-.413-.049-.5.777-.987.04-1.716-.4-2.493a4.427,4.427,0,0,1-.1-.453c.68.105,1.263.2,1.926.308v-1.7a1.253,1.253,0,0,1,.2-.17,6.974,6.974,0,0,1,.971.842c.639.769.777.785,1.441.008,2.282-2.687,4.589-5.342,6.814-8.077A3.955,3.955,0,0,1,15.072,10.1c5.422.081,10.837.032,16.259.04a12.894,12.894,0,0,1,2.857.138,5.327,5.327,0,0,1,4.217,5.05c.04.494.04.987.049,1.481a2.8,2.8,0,0,0,.915,2.371C40.469,20.1,40.437,21.422,39.935,22.758Z" transform="translate(0)"/><path class="b" d="M24.1,28.19c.486,2.865.955,5.633,1.441,8.53a17.289,17.289,0,0,1-1.861-.024.81.81,0,0,1-.5-.477c-.388-1.036-.777-2.072-1.084-3.132C21.6,31.427,22.641,28.854,24.1,28.19Z" transform="translate(-4.137 -3.45)"/><path class="b" d="M34.7,36.741c.445-1.724.809-3.278,1.263-4.815a1.913,1.913,0,0,0-.34-2.072A4.613,4.613,0,0,1,34.74,28.3a2.977,2.977,0,0,1,.518.3c.979.874,1.975,1.724,2.914,2.646a1.115,1.115,0,0,1,.194.947c-.38,1.222-.89,2.4-1.254,3.626-.227.753-.6,1.06-1.368.931A7.187,7.187,0,0,0,34.7,36.741Z" transform="translate(-6.565 -3.471)"/></g></g></svg>