<?xml version="1.0" encoding="utf-8"?>
<!-- Generator: Adobe Illustrator 24.0.1, SVG Export Plug-In . SVG Version: 6.00 Build 0)  -->
<svg version="1.1" id="Layer_1" xmlns="http://www.w3.org/2000/svg" xmlns:xlink="http://www.w3.org/1999/xlink" x="0px" y="0px"
	 viewBox="0 0 50 50" style="enable-background:new 0 0 50 50;" xml:space="preserve">
<style type="text/css">
	.st0{fill:#FFFFFF;}
</style>
<g>
	<path class="st0" d="M24.27,30.63h-3.73c-1.42,0-2.57-1.1-2.57-2.44c0-1.33,1.15-2.44,2.57-2.44h3.73c1.42,0,2.57,1.1,2.57,2.44
		C26.84,29.53,25.69,30.63,24.27,30.63 M23.26,36.58h-2.95c-1.42,0-2.57-1.1-2.57-2.44c0-1.33,1.15-2.44,2.57-2.44h2.95
		c1.42,0,2.57,1.1,2.57,2.44C25.83,35.48,24.68,36.58,23.26,36.58 M20.61,42.36h-0.66c-1.42,0-2.57-1.1-2.57-2.44
		c0-1.33,1.15-2.44,2.57-2.44h0.66c1.42,0,2.57,1.1,2.57,2.44C23.18,41.26,22.03,42.36,20.61,42.36 M19.2,45.86
		c-0.8,0-1.45-0.61-1.45-1.36c0-0.75,0.65-1.36,1.45-1.36c0.8,0,1.45,0.61,1.45,1.36C20.65,45.25,20,45.86,19.2,45.86 M18.6,10.92
		c0.8,0,1.45,0.61,1.45,1.37c0,0.75-0.65,1.36-1.45,1.36c-0.8,0-1.45-0.61-1.45-1.36C17.14,11.53,17.79,10.92,18.6,10.92
		 M20.91,14.21c1.42,0,2.57,1.01,2.57,2.35c0,1.33-1.15,2.35-2.57,2.35h-0.64c-1.42,0-2.57-1.01-2.57-2.35
		c0-1.33,1.15-2.35,2.57-2.35H20.91z M25.83,22.24c0,1.33-1.15,2.44-2.57,2.44h-2.72c-1.42,0-2.57-1.1-2.57-2.44
		c0-1.33,1.15-2.44,2.57-2.44h2.72C24.68,19.81,25.83,20.91,25.83,22.24 M15.17,45.86c-0.81,0-1.47-0.62-1.47-1.38
		s0.66-1.38,1.47-1.38c0.81,0,1.47,0.62,1.47,1.38S15.99,45.86,15.17,45.86 M10.49,39.92c0-1.33,1.15-2.44,2.57-2.44h0.66
		c1.42,0,2.57,1.1,2.57,2.44c0,1.33-1.15,2.44-2.57,2.44h-0.66C11.64,42.36,10.49,41.26,10.49,39.92 M7.59,33.97
		c0-1.33,1.15-2.44,2.57-2.44h2.89c1.42,0,2.57,1.1,2.57,2.44c0,1.33-1.15,2.44-2.57,2.44h-2.89C8.74,36.4,7.59,35.3,7.59,33.97
		 M6.59,28.02c0-1.34,1.15-2.44,2.57-2.44h3.88c1.42,0,2.57,1.1,2.57,2.44c0,1.33-1.15,2.44-2.57,2.44H9.16
		C7.74,30.45,6.59,29.35,6.59,28.02 M10.16,19.81h2.89c1.42,0,2.57,1.1,2.57,2.44c0,1.33-1.15,2.44-2.57,2.44h-2.89
		c-1.42,0-2.57-1.1-2.57-2.44C7.59,20.91,8.74,19.81,10.16,19.81 M12.64,14.21h0.64c1.42,0,2.57,1.01,2.57,2.35
		c0,1.33-1.15,2.35-2.57,2.35h-0.64c-1.42,0-2.57-1.01-2.57-2.35C10.07,15.23,11.22,14.21,12.64,14.21 M14.58,10.88
		c0.81,0,1.47,0.62,1.47,1.38c0,0.76-0.66,1.38-1.47,1.38c-0.81,0-1.47-0.62-1.47-1.38C13.1,11.5,13.76,10.88,14.58,10.88
		 M18.42,7.43c-0.39-0.22-0.67-0.58-0.76-1.01c-0.39-1.82-0.11-3.78,0.35-5.82c0.04-0.2-0.12-0.37-0.32-0.37
		c-0.02,0-0.04,0-0.07,0.01l-2.14,0.41c-0.18,0.03-0.29,0.2-0.25,0.36c0.44,2.07,0.77,4.05,0.55,5.49
		c-0.07,0.45-0.35,0.85-0.76,1.09C11.38,9.66,3.66,15.56,3.66,28.25c0,15.77,13.22,21.59,13.22,21.59s13.21-4.37,13.21-21.59
		C30.09,15.36,21.9,9.38,18.42,7.43 M41.79,18.44C33.78,6.56,22.21,6.54,19.12,6.77c0.33,0.19,0.69,0.41,1.08,0.66
		c0.02,0.01,0.04,0.01,0.06,0.02c0.24,0.07,0.51,0.16,0.81,0.27c0.3,0.11,0.65,0.23,1.01,0.37c0.36,0.15,0.75,0.31,1.16,0.49
		c0.41,0.19,0.84,0.4,1.29,0.62c0.45,0.23,0.91,0.49,1.4,0.75c0.24,0.14,0.48,0.29,0.72,0.43c0.24,0.15,0.5,0.3,0.75,0.46
		c0.49,0.33,1.01,0.66,1.52,1.04c0.26,0.19,0.52,0.37,0.77,0.57c0.25,0.2,0.51,0.41,0.77,0.61c0.13,0.1,0.26,0.21,0.39,0.31
		c0.13,0.11,0.25,0.22,0.38,0.33c0.25,0.22,0.51,0.44,0.77,0.67c0.5,0.47,1.01,0.94,1.49,1.45c0.24,0.25,0.5,0.5,0.73,0.77
		c0.24,0.27,0.47,0.53,0.71,0.8c0.93,1.08,1.82,2.23,2.63,3.42c0.8,1.2,1.56,2.43,2.19,3.68c0.17,0.31,0.32,0.63,0.47,0.94
		c0.15,0.32,0.3,0.63,0.43,0.94c0.13,0.32,0.27,0.63,0.4,0.94c0.13,0.31,0.24,0.63,0.36,0.94c0.06,0.15,0.12,0.31,0.17,0.47
		c0.05,0.16,0.1,0.31,0.15,0.47c0.1,0.31,0.2,0.62,0.3,0.92c0.09,0.31,0.17,0.61,0.25,0.92c0.04,0.15,0.08,0.3,0.12,0.45
		c0.03,0.15,0.07,0.3,0.1,0.45c0.07,0.3,0.13,0.59,0.2,0.88c0.05,0.29,0.1,0.58,0.15,0.86c0.11,0.56,0.16,1.11,0.23,1.63
		c0.04,0.26,0.05,0.52,0.07,0.77c0.02,0.25,0.04,0.5,0.05,0.74c0.02,0.48,0.02,0.94,0.03,1.36c-0.01,0.43-0.02,0.83-0.04,1.2
		c0,0.09-0.01,0.18-0.01,0.27c-0.01,0.09-0.01,0.18-0.02,0.26c-0.01,0.17-0.03,0.33-0.04,0.48c-0.04,0.61-0.14,1.08-0.19,1.41
		c-0.05,0.32-0.08,0.49-0.08,0.49s-0.01-0.17-0.03-0.5c-0.01-0.32-0.03-0.8-0.08-1.4c-0.04-0.6-0.13-1.33-0.24-2.16
		c-0.07-0.41-0.13-0.85-0.22-1.31c-0.1-0.46-0.18-0.94-0.3-1.44c-0.13-0.5-0.23-1.02-0.39-1.55c-0.07-0.27-0.15-0.54-0.22-0.81
		c-0.09-0.27-0.18-0.55-0.27-0.83c-0.04-0.14-0.09-0.28-0.13-0.42c-0.05-0.14-0.1-0.28-0.15-0.42c-0.1-0.28-0.2-0.57-0.31-0.86
		c-0.11-0.29-0.23-0.58-0.35-0.87c-0.06-0.15-0.12-0.29-0.17-0.44c-0.06-0.15-0.13-0.29-0.19-0.44c-0.49-1.18-1.1-2.37-1.73-3.55
		c-0.17-0.3-0.33-0.59-0.5-0.89c-0.18-0.29-0.35-0.58-0.53-0.88c-0.17-0.3-0.36-0.58-0.55-0.87c-0.19-0.29-0.37-0.58-0.57-0.86
		l-0.59-0.85c-0.2-0.28-0.41-0.55-0.61-0.83l-0.31-0.41l-0.32-0.4c-0.21-0.27-0.42-0.54-0.64-0.8c-0.87-1.05-1.78-2.05-2.69-2.98
		c-0.93-0.92-1.85-1.8-2.78-2.57c-0.45-0.4-0.92-0.76-1.37-1.12c-0.45-0.36-0.9-0.67-1.32-1c-0.44-0.3-0.86-0.6-1.26-0.87
		c-0.41-0.26-0.8-0.52-1.17-0.75c-0.38-0.22-0.73-0.43-1.05-0.63c-0.06-0.04-0.12-0.07-0.18-0.1c3.42,2.61,7.8,7.4,9.06,15.26
		c0.15,0.22,0.3,0.43,0.44,0.65c0.73,1.09,1.46,2.18,2.17,3.26c0.35,0.54,0.7,1.08,1.04,1.61c0.34,0.53,0.68,1.06,1.01,1.58
		c1.02,1.6,1.96,3.13,2.79,4.52c0.25,0.41,0.49,0.81,0.72,1.2c0.5,0.85,0.95,1.62,1.34,2.32c0.4,0.69,0.73,1.31,1.01,1.81
		c0.28,0.5,0.48,0.9,0.63,1.17c0.14,0.27,0.22,0.42,0.22,0.42s-0.11-0.13-0.31-0.36c-0.2-0.24-0.5-0.59-0.86-1.04
		c-0.36-0.45-0.81-0.99-1.31-1.63c-0.5-0.63-1.06-1.35-1.66-2.13c-0.14-0.19-0.29-0.38-0.44-0.58c-1.09-1.44-2.31-3.09-3.57-4.85
		c-0.36-0.5-0.72-1.01-1.09-1.53c-0.37-0.52-0.74-1.04-1.1-1.57c-0.23-0.33-0.46-0.67-0.69-1c0.01,0.23,0.01,0.46,0.01,0.69
		c0,2.16-0.21,4.23-0.62,6.18c0.43,0.46,0.89,0.89,1.32,1.32c0.23,0.21,0.46,0.42,0.68,0.63c0.11,0.11,0.23,0.21,0.34,0.31
		c0.12,0.1,0.23,0.2,0.34,0.3c0.23,0.2,0.45,0.39,0.67,0.59c0.23,0.18,0.45,0.37,0.67,0.55c0.43,0.37,0.88,0.69,1.3,1.01
		c0.42,0.32,0.84,0.6,1.23,0.89c0.4,0.28,0.79,0.52,1.15,0.77c0.73,0.46,1.38,0.87,1.93,1.17c0.54,0.32,0.98,0.54,1.28,0.7
		c0.3,0.16,0.46,0.25,0.46,0.25s-0.17-0.05-0.5-0.15c-0.33-0.1-0.82-0.24-1.41-0.47c-0.61-0.21-1.32-0.52-2.14-0.89
		c-0.4-0.2-0.83-0.4-1.27-0.63c-0.22-0.12-0.44-0.24-0.67-0.37c-0.23-0.13-0.47-0.26-0.7-0.4c-0.47-0.29-0.96-0.58-1.44-0.92
		c-0.25-0.16-0.49-0.33-0.75-0.51c-0.24-0.18-0.49-0.36-0.75-0.55c-0.13-0.09-0.25-0.19-0.38-0.28c-0.12-0.1-0.25-0.2-0.37-0.3
		c-0.25-0.2-0.5-0.41-0.76-0.61c-0.22-0.19-0.45-0.39-0.67-0.59c-0.3,1.04-0.65,2.04-1.07,3c-0.13,0.3-0.27,0.59-0.41,0.89
		c7.33,4.05,14.42,3.21,14.42,3.21S51.6,33,41.79,18.44"/>
</g>
</svg>
