<?xml version="1.0" encoding="utf-8"?>
<!-- Generator: Adobe Illustrator 24.0.1, SVG Export Plug-In . SVG Version: 6.00 Build 0)  -->
<svg version="1.1" id="Layer_1" xmlns="http://www.w3.org/2000/svg" xmlns:xlink="http://www.w3.org/1999/xlink" x="0px" y="0px"
	 viewBox="0 0 50 50" style="enable-background:new 0 0 50 50;" xml:space="preserve">
<style type="text/css">
	.st0{fill:#FFFFFF;}
</style>
<g>
	<path class="st0" d="M12.53,18.76c-0.01,0-0.01,0.02,0,0.02S12.54,18.76,12.53,18.76z"/>
	<g>
		<path class="st0" d="M38.64,35.94c-0.52-0.06-0.99-0.23-1.46-0.46c-0.38-0.19-0.69-0.57-1.03-0.81c-0.32-0.22-0.63-0.43-0.95-0.61
			c0.31-0.14,0.61-0.3,0.9-0.49c2.45-1.59,4.45-4.93,3.89-7.91c-0.02-0.09-0.17-0.09-0.19,0c-0.29,1.41-0.59,2.76-1.34,4
			c-0.75,1.26-1.93,2.43-3.21,3.16c-0.49,0.28-1.03,0.46-1.58,0.58c0.59-0.42,3.93-2.55,4.34-4.92c0.24-1.42,0.44-2.68,0.41-4.09
			c-0.03-1.45-0.32-2.77-1.01-4.05c-0.29-0.55-0.62-0.89-1.1-1.26c-0.4-0.3-1.16-0.22-1.41-1.97c-0.01-0.07-0.02,0.73-0.03,0.8
			c-0.11,0.9,0.87,1.56,1.42,2.11c0.45,0.45,0.64,1.38,0.79,1.98c0.17,0.68,0.25,1.39,0.28,2.09c0.05,1.36,0.15,2.65-0.29,3.96
			c-0.27,0.82-0.72,1.55-1.11,2.31c-1.05,1.23-2.46,2.22-3.81,2.78c-0.64,0.27-1.26,0.34-1.88,0.33c-0.17-0.05-0.35-0.11-0.53-0.18
			c0.06-0.22,0.11-0.42,0.15-0.6c0.24-1.12,0.07-2.34-0.06-3.47c-0.12-1.1-0.35-2.19-0.71-3.24c-0.19-0.57-0.49-1.19-0.51-1.79
			c-0.01-0.12,0-0.25,0-0.37c0.01-0.2,0.03-0.4,0.03-0.61c0.02-0.7-0.01-1.4-0.19-2.08c-0.18-0.71-0.66-1.28-0.78-2.02
			c-0.01-0.04-0.06-0.02-0.06,0.01c-0.04,0.64,0.2,1.17,0.33,1.77c0.16,0.74,0.03,1.57-0.03,2.32c-0.06,0.78-0.2,1.57-0.44,2.32
			c-0.25,0.78-0.65,1.52-0.95,2.28c-0.45,1.16-0.8,2.37-0.82,3.61c-0.53-0.62-1.24-1.1-1.97-1.46c-1.54-0.77-3.33-0.98-4.99-1.36
			c-1.93-0.44-3.96-1.2-5.39-2.62c-0.37-0.37-0.61-0.83-0.96-1.21c-0.4-0.45-0.72-0.98-1-1.52c-0.45-0.87-0.79-1.9-0.83-2.91
			c0.06,1.98,0.93,3.81,1.98,5.47c1.14,1.8,3.34,2.81,5.27,3.52c1.7,0.62,3.42,1.08,5.04,1.89c0.69,0.35,1.35,0.81,1.8,1.45
			c0.16,0.22,0.28,0.58,0.42,0.92c-0.44,0.08-0.89,0.17-1.34,0.19c-0.95,0.03-1.88-0.13-2.79-0.39c-0.93-0.26-1.82-0.65-2.68-1.09
			c-0.8-0.4-1.69-0.83-2.39-1.39c-1.16-0.92-2.1-2.1-2.94-3.32c-0.45-0.65-0.84-1.34-1.17-2.06c-0.32-0.69-0.64-1.53-0.71-2.28
			c0-0.03-0.04-0.03-0.04,0c-0.05,0.72,0,1.33,0.2,2.04c0.23,0.83,0.58,1.62,0.96,2.38c0.73,1.45,1.75,2.91,3.01,3.95
			c0.76,0.63,1.72,1.1,2.59,1.55c0.93,0.48,1.91,0.89,2.92,1.19c0.62,0.19,1.26,0.31,1.91,0.38c-0.49,0.4-0.76,0.98-1.08,1.52
			c-0.45,0.75-0.89,1.51-1.38,2.24c-0.19,0.29-0.42,0.55-0.66,0.79c-0.31,0.31-0.7,0.49-1.03,0.77c-0.76,0.66-1.67,1.12-2.58,1.53
			c-0.39,0.17-0.73,0.32-1.15,0.36c-0.33,0.03-0.65,0.06-0.98,0.08c-0.63,0.04-1.58,0.16-1.99-0.45c-0.04-0.06-0.12-0.01-0.09,0.06
			c0.22,0.45,0.7,0.6,1.15,0.73c0.66,0.2,1.34,0.21,2.02,0.24c0.82,0.04,1.67-0.29,2.45-0.56c0.95-0.33,1.84-0.84,2.69-1.37
			c1.16-0.73,1.98-1.91,2.68-3.1c0.05,0,0.09-0.03,0.11-0.09c0.02-0.07,0.04-0.14,0.06-0.21c0.06-0.12,0.13-0.23,0.19-0.34
			c0.59-0.78,1.92-0.86,2.82-0.82c0.67,0.03,1.32,0.19,1.97,0.37c0.27,0.07,0.54,0.17,0.8,0.3c0.11,0.06,0.23,0.08,0.36,0.11
			c0.21,0.22,0.41,0.44,0.61,0.67c0.18,0.46,0.42,0.91,0.64,1.35c0.27,0.55,0.48,1.11,0.67,1.69c0.18,0.57,0.42,1.35,0.48,1.8
			c0.15,1.33,0.12,2.73-0.08,3.87c-0.12,0.73-0.09,1.9,0.32,2.53c0.34,0.51,0.85,0.8,1.43,0.47c1.42-0.81,1.57-2.81,1.66-4.26
			c0.09-1.55-0.14-3.03-0.75-4.46c-0.55-1.28-1.34-2.38-2.22-3.45c-0.35-0.43-0.81-0.85-1.29-1.13c-0.01-0.01-0.02-0.01-0.03-0.02
			c-0.12-0.12-0.23-0.23-0.35-0.35c0.45-0.08,0.9-0.1,1.39-0.09c0.42,0,0.82,0.03,1.24-0.01c0.47-0.04,0.89-0.23,1.36-0.22
			c1.55,0.04,3.02,0.84,4.59,0.74C38.72,36.06,38.72,35.95,38.64,35.94z M28.08,32.33c-0.07,0.15-0.13,0.29-0.19,0.44
			c-0.12,0-0.23,0-0.34,0.02c-0.04-0.12-0.07-0.23-0.1-0.34c-0.35-1.49,0.14-3.18,0.48-4.63c0.09-0.4,0.19-0.79,0.27-1.19
			c0.12,0.87,0.24,1.73,0.25,2.61C28.47,30.27,28.51,31.38,28.08,32.33z"/>
	</g>
	<path class="st0" d="M44.04,10.47c-1.68-1.35-3.81-2.44-6.01-2.38c-2.3,0.06-4.15,1.53-5.89,2.87l0,0
		c-1.19-1.23-2.79-2.15-4.48-2.52c-0.01-0.01-0.02-0.02-0.03-0.02C27.17,8.1,26.52,8.06,25.98,8c-0.74-0.08-1.45,0.01-2.16,0.22
		c-1.31,0.38-2.64,1.15-3.71,1.98c-1.12,0.88-1.84,2.16-2.44,3.43c-0.37,0.79-0.73,1.62-0.87,2.48c-0.47,1.41-0.51,2.9,0.3,4.29
		c0.09,0.16,0.32,0.05,0.29-0.12c-0.24-1.27-0.36-2.51,0.03-3.76c0.39-1.26,1.26-2.37,2.08-3.37c0.44-0.55,0.95-1.12,1.51-1.65
		c0.96-0.67,1.96-1.3,2.99-1.87c0.56-0.31,1.16-0.52,1.8-0.56c0.55-0.04,1.09,0.06,1.63,0.03c0.02,0,0.04,0,0.05-0.01
		c1.87,0.37,3.68,1.51,4.86,2.87c1.55,1.78,2.08,4.17,2.26,6.46c0.01,0.08,0.12,0.08,0.12,0c-0.07-2.4-0.52-4.87-2.04-6.81
		c-0.17-0.22-0.36-0.43-0.55-0.64c1.26-0.83,2.64-1.56,4.11-1.9c1.47-0.34,2.97,0.03,4.31,0.63c2.55,1.15,4.52,3.44,5.8,5.88
		c2.43,4.67,1.78,10.36-1.83,14.23c-0.94,1.01-2.06,1.81-3.28,2.43c-0.62,0.31-1.3,0.51-1.97,0.68c-0.31,0.08-0.63,0.15-0.95,0.22
		c-0.35,0.07-0.66,0.34-0.96,0.53c-0.22,0.14-0.2,0.51,0.08,0.58c0.26,0.06,0.63,0.22,0.9,0.19c0.33-0.04,0.65-0.12,0.97-0.2
		c0.68-0.18,1.34-0.4,1.98-0.67c1.28-0.53,2.47-1.13,3.56-1.99c2.17-1.71,3.7-4.03,4.43-6.69C50.72,19.59,48.18,13.79,44.04,10.47z"
		/>
	<path class="st0" d="M34.64,4.03c-0.56-0.38-1.29-0.49-1.93-0.56c-0.46-0.05-0.92-0.23-1.39-0.28c-1.7-1.64-4.37-2.29-6.66-2.3
		c-2.05-0.01-4.14,0.41-5.91,1.53c-1.44,0.92-3.62,2.64-3.24,4.62C14.6,6.48,13.58,6.14,12.51,6C9.56,5.62,6.76,7.38,4.77,9.49
		c-2.02,2.13-3.72,4.73-4.32,7.69c-0.62,3.08,0.41,6.2,1.99,8.79c0.78,1.27,1.87,2.49,3.07,3.33c0.59,0.41,1.22,0.75,1.87,1.04
		c0.7,0.32,1.5,0.35,2.23,0.54c0.13,0.03,0.17-0.16,0.05-0.2c-0.63-0.23-1.19-0.63-1.73-1.02c-0.54-0.4-1.13-0.7-1.65-1.14
		c-1.03-0.86-2.02-1.83-2.74-2.99c-1.64-2.64-2.51-5.75-1.63-8.83c0.8-2.79,2.78-5.46,4.95-7.26c2.29-1.9,5.38-3.07,8.18-1.7
		c1.38,0.67,2.56,1.9,3.58,3.06c0.05,0.05,0.13-0.02,0.09-0.07c-0.68-1.23-1.45-2.31-2.53-3.18c-0.15-0.12-0.3-0.23-0.45-0.33
		c0.38-1.94,2.22-3.24,3.8-4.07c1.65-0.86,3.43-1.15,5.26-1.12c1.53,0.02,3.08,0.34,4.44,1.09c1.44,0.79,2.5,2.04,3.36,3.45
		c0.13,0.21,0.4,0.07,0.36-0.16c-0.1-0.62-0.28-1.18-0.53-1.68c0.33,0.04,0.64,0.06,0.86,0.07c1.15,0.08,2.52,1.12,2.53,2.43
		c0,0.19,0.26,0.22,0.31,0.04C36.52,5.99,35.62,4.69,34.64,4.03z"/>
	<path class="st0" d="M18.46,37.19c-0.97,0.48-1.88,1.07-2.87,1.52c-1.02,0.47-2.04,0.62-3.12,0.85c-1.79,0.39-3.64,0.07-5.24-0.8
		c-1.72-0.94-3.17-2.42-3.93-4.25c-0.8-1.93-0.09-3.98,0.66-5.79c0.02-0.05-0.05-0.1-0.09-0.07c-0.92,0.64-1.62,1.52-2.1,2.54
		c-0.49,1.04-0.44,2.36-0.2,3.45c0.5,2.32,2.63,4.23,4.58,5.36c1.9,1.11,4.08,1.46,6.23,1.1c1.21-0.2,2.31-0.8,3.33-1.48
		c1.01-0.67,2-1.46,2.87-2.3C18.66,37.26,18.56,37.14,18.46,37.19z"/>
	<path class="st0" d="M44.35,17.77C44.35,17.77,44.34,17.77,44.35,17.77c0.38,1.42,0.44,2.96,0.3,4.42
		c-0.14,1.5-0.56,2.86-1.11,4.25c-0.08,0.2,0.22,0.29,0.33,0.14c0.86-1.19,1.17-2.78,1.2-4.22C45.11,20.79,44.81,19.27,44.35,17.77z
		"/>
	<path class="st0" d="M7.34,26.13c-1.15-1.83-1.81-3.85-1.79-6.02c0.01-1.23,0.22-2.43,0.48-3.63c0.19-0.86,0.59-1.89,1.27-2.47
		c0.05-0.05-0.02-0.14-0.07-0.09c-0.7,0.53-1.11,1.44-1.41,2.24c-0.44,1.2-0.61,2.48-0.65,3.75c-0.06,2.16,0.49,4.74,2.02,6.34
		C7.26,26.33,7.4,26.22,7.34,26.13z"/>
	<path class="st0" d="M12.1,37.63c-1.27-0.21-2.56-0.35-3.76-0.83c-1.38-0.55-2.53-1.59-3-3.03c-0.01-0.03-0.04-0.02-0.04,0.01
		c0.71,2.81,4.08,4.49,6.8,4.07C12.22,37.85,12.22,37.65,12.1,37.63z"/>
	<path class="st0" d="M34.98,22.11c-0.28-1.54-1.06-2.92-1.72-4.32c-0.06-0.12-0.22-0.02-0.17,0.1c0.55,1.29,1.16,2.55,1.45,3.93
		c0.32,1.54,0.11,3.18-0.21,4.7c-0.03,0.13,0.16,0.22,0.22,0.09c0.3-0.69,0.51-1.35,0.58-2.11C35.2,23.71,35.13,22.9,34.98,22.11z"
		/>
	<path class="st0" d="M18.31,20.17c-0.48-0.09-0.79,0.3-1.1,0.62c-0.39,0.39-0.71,0.83-0.96,1.32c-0.41,0.8-0.51,1.7-0.36,2.58
		c0.13,0.76,0.37,1.51,0.78,2.17c0.17,0.28,0.81,1.04,1.16,0.59c0.01-0.01,0.01-0.02,0-0.03c-0.17-0.12-0.36-0.17-0.51-0.33
		c-0.21-0.21-0.33-0.52-0.43-0.8c-0.21-0.57-0.36-1.17-0.43-1.78c-0.09-0.72,0.07-1.42,0.4-2.06c0.2-0.38,0.48-0.72,0.78-1.02
		c0.29-0.29,0.81-0.46,0.89-0.9C18.55,20.39,18.48,20.2,18.31,20.17z"/>
	<path class="st0" d="M30.27,5.56c-0.98-0.82-2.29-1.44-3.56-1.1c-0.13,0.03-0.12,0.22,0,0.25c1.07,0.34,2.16,0.47,3.15,1.05
		c1.15,0.67,2.06,1.81,2.52,3.06c0,0.01,0.02,0.01,0.01,0C31.97,7.54,31.32,6.43,30.27,5.56z"/>
</g>
</svg>
