<?xml version="1.0" encoding="utf-8"?>
<!-- Generator: Adobe Illustrator 24.0.1, SVG Export Plug-In . SVG Version: 6.00 Build 0)  -->
<svg version="1.1" id="Layer_1" xmlns="http://www.w3.org/2000/svg" xmlns:xlink="http://www.w3.org/1999/xlink" x="0px" y="0px"
	 viewBox="0 0 50 50" style="enable-background:new 0 0 50 50;" xml:space="preserve">
<style type="text/css">
	.st0{fill-rule:evenodd;clip-rule:evenodd;fill:#FFFFFF;}
</style>
<g>
	<path class="st0" d="M49.28,25.74c-2.2-0.88-2.98-2.41-2.89-4.63c0.07-1.68-0.11-3.38-0.32-5.05c-0.23-1.76-1.11-3.15-2.81-4.02
		c1.43,3.95,0.22,7.71-0.49,11.48c-0.14,0.76-0.15,1.41,0.34,2.02c1.82,2.27,2.47,4.83,2.21,7.74c-0.19,2.07-0.06,4.17-0.03,6.26
		c0.01,0.7-0.24,0.96-0.94,0.94c-2.44-0.04-2.1,0.2-2.11-2.04c-0.01-1.73,0.03-3.46-0.03-5.18c-0.01-0.43-0.26-0.98-0.58-1.26
		c-1.71-1.49-3.45-2.94-5.24-4.33c-0.44-0.34-1.1-0.59-1.66-0.59c-3.78-0.05-7.56-0.06-11.34,0.02c-0.58,0.01-1.23,0.46-1.71,0.86
		c-1.68,1.41-1.76,3.42-1.93,5.4c-0.18,2.05-0.45,4.08-0.61,6.12c-0.06,0.79-0.33,1.12-1.11,1.01c-0.28-0.04-0.58-0.03-0.86,0
		c-0.68,0.08-0.96-0.17-0.98-0.89c-0.07-2.38-0.06-4.77-0.36-7.11c-0.17-1.34-0.83-2.64-1.36-3.92c-0.1-0.24-0.66-0.39-1.02-0.39
		c-1.47,0.01-2.95,0.05-4.42,0.2c-0.4,0.04-0.88,0.43-1.11,0.8c-1.3,2.06-2.96,3.68-5.14,4.8c-0.81,0.42-1.46,0.2-1.95-0.31
		c-0.32-0.33-0.45-1-0.41-1.49c0.11-1.18,0.4-2.34,0.56-3.52c0.07-0.48-0.02-0.98-0.04-1.47c-0.01-0.21-0.15-0.51-0.06-0.62
		c0.96-1.22,0.05-2.12-0.49-3.08c-0.04-0.09-0.04-0.2-0.12-0.56c0.84,0.13,1.56,0.25,2.38,0.38c0-0.69,0-1.39,0-2.1
		C2.73,21.12,2.82,21.06,2.9,21c0.41,0.34,0.87,0.64,1.2,1.04c0.79,0.95,0.96,0.97,1.78,0.01c2.82-3.32,5.67-6.6,8.42-9.98
		c1.15-1.41,2.41-2,4.26-1.97c6.7,0.1,13.39,0.04,20.09,0.05c1.18,0,2.4-0.09,3.53,0.17c3.06,0.7,4.96,3.06,5.21,6.24
		c0.05,0.61,0.05,1.22,0.06,1.83c0.03,1.11,0.12,2.07,1.13,2.93C49.94,22.46,49.9,24.09,49.28,25.74z"/>
	<path class="st0" d="M24.6,28.19c0.6,3.54,1.18,6.96,1.78,10.54c-0.88,0-1.6,0.05-2.3-0.03c-0.23-0.03-0.53-0.34-0.62-0.59
		c-0.48-1.28-0.96-2.56-1.34-3.87C21.51,32.19,22.8,29.01,24.6,28.19z"/>
	<path class="st0" d="M34.7,38.73c0.55-2.13,1-4.05,1.56-5.95c0.29-0.96,0.31-1.77-0.42-2.56c-0.48-0.52-0.81-1.17-1.09-1.92
		c0.21,0.12,0.46,0.21,0.64,0.37c1.21,1.08,2.44,2.13,3.6,3.27c0.24,0.24,0.35,0.83,0.24,1.17c-0.47,1.51-1.1,2.97-1.55,4.48
		c-0.28,0.93-0.74,1.31-1.69,1.15C35.63,38.68,35.27,38.73,34.7,38.73z"/>
</g>
</svg>
