<svg xmlns="http://www.w3.org/2000/svg" width="39.82" height="49.75" viewBox="0 0 39.82 49.75"><defs><style>.a{fill:#c15527;}</style></defs><g transform="translate(-4.95 -0.15)"><path class="a" d="M44.1.15H23.5a.634.634,0,0,0-.47.2.693.693,0,0,0-.2.47V4.11a.634.634,0,0,0,.2.47.693.693,0,0,0,.47.2h.23V14.9a.67.67,0,1,0,1.34,0V5.04H42.53V44.99H25.07V22.62a.67.67,0,0,0-1.34,0V45.24H23.5a.634.634,0,0,0-.47.2.693.693,0,0,0-.2.47V49.2a.634.634,0,0,0,.2.47.693.693,0,0,0,.47.2h.23v.03H43.87v-.03h.23a.634.634,0,0,0,.47-.2.693.693,0,0,0,.2-.47V45.91a.634.634,0,0,0-.2-.47.693.693,0,0,0-.47-.2h-.23V4.78h.23a.634.634,0,0,0,.47-.2.693.693,0,0,0,.2-.47V.82a.634.634,0,0,0-.2-.47A.634.634,0,0,0,44.1.15Zm-.67,48.21H24.17V46.9H43.43Zm-.5-45.14H24.44V1.57H42.93Z"/><path class="a" d="M12.4,15.66a4.63,4.63,0,1,0-4.63-4.63A4.626,4.626,0,0,0,12.4,15.66Zm-2.07-6.7a2.921,2.921,0,1,1-.86,2.07A2.917,2.917,0,0,1,10.33,8.96Z"/><path class="a" d="M8.51,49.9h7.77l2.3-28.34,5.82-.73,5.22-.65V16.39H9.32a5.164,5.164,0,0,0-3.01.88,3.263,3.263,0,0,0-.99,1.1,3.093,3.093,0,0,0-.37,1.48V30.9a3.417,3.417,0,0,0,.77,2.14,4.208,4.208,0,0,0,1.5,1.16Zm4.71-31.97-.73,1.03-.73-1.03ZM7.13,31.63a1.99,1.99,0,0,1-.45-1.24V19.94a1.637,1.637,0,0,1,.2-.8,2.093,2.093,0,0,1,.99-.87,3.976,3.976,0,0,1,1.69-.35h.92l1.34,1.89v7.53a.63.63,0,0,0,1.26,0V19.81l1.34-1.89H28.07v1.2L17.14,20.41,14.97,47.92H9.95l-1.2-15.3-.38-.12A2.785,2.785,0,0,1,7.13,31.63Z"/><path class="a" d="M27.78,14.06H39.81a.67.67,0,0,0,0-1.34H27.78a.67.67,0,1,0,0,1.34Z"/><path class="a" d="M39.81,18.62a.67.67,0,0,0,0-1.34H32.57a.67.67,0,1,0,0,1.34Z"/><path class="a" d="M41.1,33.14V23.41a.634.634,0,0,0-.2-.47.693.693,0,0,0-.47-.2H27.17a.634.634,0,0,0-.47.2.693.693,0,0,0-.2.47v9.73a.634.634,0,0,0,.2.47.693.693,0,0,0,.47.2H40.43a.634.634,0,0,0,.47-.2A.674.674,0,0,0,41.1,33.14Zm-1.56-.98H27.97V24.54H39.54Z"/></g></svg>