<?xml version="1.0" encoding="utf-8"?>
<!-- Generator: Adobe Illustrator 25.0.1, SVG Export Plug-In . SVG Version: 6.00 Build 0)  -->
<svg version="1.1"
	 id="svg931" inkscape:version="1.0.2 (e86c870879, 2021-01-15, custom)" sodipodi:docname="Oilseed Icon.svg" xmlns:cc="http://creativecommons.org/ns#" xmlns:dc="http://purl.org/dc/elements/1.1/" xmlns:inkscape="http://www.inkscape.org/namespaces/inkscape" xmlns:rdf="http://www.w3.org/1999/02/22-rdf-syntax-ns#" xmlns:sodipodi="http://sodipodi.sourceforge.net/DTD/sodipodi-0.dtd" xmlns:svg="http://www.w3.org/2000/svg"
	 xmlns="http://www.w3.org/2000/svg" xmlns:xlink="http://www.w3.org/1999/xlink" x="0px" y="0px" viewBox="0 0 514.4 507.5"
	 style="enable-background:new 0 0 514.4 507.5;" xml:space="preserve">
<style type="text/css">
	.st0{fill:#C5B22F;}
</style>
<sodipodi:namedview  bordercolor="#666666" borderopacity="1.0" fit-margin-bottom="0" fit-margin-left="0" fit-margin-right="0" fit-margin-top="0" id="base" inkscape:current-layer="layer1" inkscape:cx="458.68647" inkscape:cy="134.98332" inkscape:document-rotation="0" inkscape:document-units="mm" inkscape:pageopacity="0.0" inkscape:pageshadow="2" inkscape:window-height="705" inkscape:window-maximized="1" inkscape:window-width="1366" inkscape:window-x="1912" inkscape:window-y="300" inkscape:zoom="0.49497475" pagecolor="#ffffff" showgrid="false">
	</sodipodi:namedview>
<path class="st0" d="M369.4,321.6c-0.6-5.2-2.5-10.1-5.5-14.6c-11.9-23.1-43.4-32.2-77.5-32.8c-53.8-0.9-116.4,19.2-146.3,37.5
	c-8.6,4-14.3,9.6-16.1,16.7c-1,3.8-0.7,7.8,0.7,11.9c9.9,46,60.5,81.1,121.5,81.1c65.4,0,118.8-40.3,123-91.2
	C369.7,327.4,369.8,324.5,369.4,321.6z M294.4,309.7c-33,0-71.7,17.6-71.7,4.6s26.8-23.6,59.8-23.6c33,0,59.8,10.6,59.8,23.6
	S327.5,309.7,294.4,309.7z"/>
<g>
	<g id="g231_1_" transform="translate(316.06051)">
		<path id="path217_1_" class="st0" d="M-34,32.6c0.2-1.5-0.9-2.8-2.5-2.8H-103c-1.5,0-2.7,1.2-2.5,2.8l3.8,32.8h63.9L-34,32.6z"/>
		<path id="path219_1_" class="st0" d="M-12.9,89.8c0,7.6-6.2,13.8-13.7,13.8h-86.1c-7.6,0-13.7-6.2-13.7-13.8v-5.7
			c0-7.6,6.2-13.8,13.7-13.8h86.1c7.6,0,13.7,6.2,13.7,13.8V89.8z"/>
		<g id="g223_1_">
			<path id="path221_1_" sodipodi:nodetypes="cszcccssssssssssssccccssssssssssssscc" class="st0" d="M76,312.9l0.3-0.4l0,0
				c0,0-0.3,0.4,0.9-1.5l0,0c5-8.7,0.7-19.4,4.2-27.6l0,0c7.5-17.6,14.7-40.8,14.6-60.7l0,0c0-9.5-1.5-18-4.8-25.4l0,0
				c-3.3-7.3-8.2-13.6-16.2-19.2l0,0c-8.9-6-16.8-8-24.8-8l0,0c-13.3-0.2-27.7,6.6-39,14.8l0,0c-11.4,8-19.4,17-20.7,18.5l0,0
				l-0.2,0.2l0,0l-25.7-21.6c0.6-0.7,9.5-11.3,24.3-22.4l0,0c14.8-11,35.7-22.9,61.3-23.1l0,0c14.1-0.1,29.5,4.1,43.6,13.9l0,0
				c13.1,8.9,22.4,20.6,28,33.2l0,0c5.7,12.7,7.7,26.1,7.7,39.1l0,0c-0.1,27.4-8.9,53.8-17.3,73.8l0,0c-8.5,20-16.8,33.6-17.1,34.1
				l0,0L76,312.9z"/>
		</g>
		<g id="g229_1_">
			<path id="path225_1_" sodipodi:nodetypes="ccccccssscsass" class="st0" d="M-7.7,189.6c-8.8-2.8-18.4-11.5-20.6-20.6
				c-4.7-19.5-7.5-39.7-7.1-59.4h-68.3c0.4,19.7-2.4,39.9-7.1,59.4c-2.2,9-11.8,17.8-20.6,20.6C-197.9,210.6-245,264-245,326.6
				c0,80.8,78.5,146.4,175.3,146.4c96.9,0,175.4-65.5,175.4-146.4C105.7,264,58.5,210.6-7.7,189.6L-7.7,189.6z M-68.7,452.1
				c-73.7,0-189.8-85.1-160.3-152.9c42.3-97.3,248.3-156.4,317,19.7C109,372.6,5.1,452.1-68.7,452.1z"/>
			<path id="path227_1_" sodipodi:nodetypes="cccsssccccccccc" class="st0" d="M-103.8,109.7c0.4,19.7-2.4,39.9-7.2,59.4
				c-2.2,9-11.8,17.8-20.6,20.6C-197.9,210.6-245,264-245,326.6c0,80.8,78.5,146.4,175.3,146.4c96.9,0,175.4-65.5,175.4-146.4
				c0-62.6-47.2-116-113.4-137c-8.8-2.8-18.4-11.5-20.6-20.6c-4.7-19.5-7.5-39.7-7.1-59.4H-103.8z M-69.1,210
				c80.4,0,145.6,52.6,145.6,117.4c0,64.9-65.2,117.4-145.6,117.4c-80.4,0-145.6-52.6-145.6-117.4C-214.7,262.6-149.5,210-69.1,210z
				"/>
		</g>
	</g>
</g>
</svg>
