<?xml version="1.0" encoding="utf-8"?>
<!-- Generator: Adobe Illustrator 24.0.1, SVG Export Plug-In . SVG Version: 6.00 Build 0)  -->
<svg version="1.1" id="Layer_1" xmlns="http://www.w3.org/2000/svg" xmlns:xlink="http://www.w3.org/1999/xlink" x="0px" y="0px"
	 viewBox="0 0 50 50" style="enable-background:new 0 0 50 50;" xml:space="preserve">
<style type="text/css">
	.st0{fill:#4B738B;}
</style>
<path class="st0" d="M24.28,0.37c0.08,0,0.16,0,0.24,0c0.14,0.08,0.29,0.14,0.42,0.23c0.24,0.17,0.34,0.17,0.58-0.02
	c0.24-0.2,0.42-0.22,0.68-0.07c0.1,0.06,0.19,0.15,0.26,0.24c0.25,0.38,0.25,0.38,0.63,0.16c0.07-0.04,0.17-0.09,0.22-0.07
	c0.21,0.11,0.36-0.01,0.54-0.07c0.46-0.18,0.94,0.14,0.95,0.6c0,0.12,0.03,0.29,0.11,0.35c0.14,0.1,0.28-0.01,0.39-0.12
	c0.22-0.22,0.46-0.25,0.69-0.07c0.21,0.16,0.36,0.1,0.53-0.05c0.1-0.09,0.21-0.18,0.33-0.23c0.19-0.08,0.4-0.1,0.55,0.08
	c0.09,0.11,0.17,0.12,0.31,0.1c0.4-0.05,0.77-0.01,0.97,0.43c0.04,0.09,0.14,0.15,0.22,0.21c0.14,0.1,0.19,0.21,0.13,0.39
	c-0.09,0.3,0.25,0.67,0.54,0.59c0.28-0.08,0.5-0.05,0.71,0.15c0.04,0.04,0.12,0.04,0.18,0.05c0.35,0.08,0.6,0.47,0.49,0.81
	c-0.07,0.22,0.02,0.34,0.21,0.37c0.24,0.04,0.35,0.17,0.43,0.39c0.13,0.37,0.43,0.45,0.77,0.26c0.11-0.07,0.25-0.11,0.38-0.11
	c0.44,0.01,0.64,0.25,0.67,0.7c0.01,0.12,0.09,0.32,0.17,0.34c0.3,0.07,0.45,0.23,0.48,0.52c0.02,0.15,0.11,0.18,0.24,0.16
	c0.06-0.01,0.13-0.03,0.19-0.04c0.46-0.07,0.65,0.09,0.69,0.56c0.01,0.04,0.01,0.08,0.01,0.12c0.04,0.29,0.21,0.44,0.5,0.42
	c0.26-0.01,0.45,0.11,0.56,0.33c0.18,0.34,0.4,0.4,0.73,0.17c0.19-0.13,0.4-0.16,0.59-0.04c0.3,0.19,0.66,0.34,0.74,0.76
	c0.02,0.14,0.12,0.28,0.32,0.27c0.38-0.02,0.52,0.06,0.66,0.41c0.08,0.19,0.11,0.4,0.18,0.59c0.09,0.26,0.36,0.46,0.62,0.44
	c0.18-0.01,0.36-0.06,0.54-0.1c0.28-0.05,0.49,0.04,0.51,0.26c0.03,0.26,0.16,0.29,0.37,0.27c0.3-0.02,0.46,0.14,0.51,0.42
	c0.03,0.16,0.1,0.32,0.14,0.48c0.03,0.14,0.06,0.27,0.09,0.41c0.02,0.08,0.06,0.21,0.11,0.21c0.37,0.06,0.48,0.38,0.62,0.65
	c0.04,0.09,0.02,0.25-0.03,0.34c-0.06,0.11-0.11,0.18-0.03,0.3c0.03,0.05,0.03,0.14,0.02,0.21c-0.03,0.2,0.05,0.34,0.22,0.44
	c0.15,0.08,0.21,0.19,0.16,0.36c-0.08,0.25,0.03,0.4,0.26,0.49c0.29,0.11,0.39,0.33,0.38,0.63c0,0.09-0.03,0.18-0.02,0.26
	c0,0.07,0.02,0.17,0.07,0.2c0.38,0.28,0.37,0.67,0.33,1.07c-0.01,0.07,0.03,0.19,0.08,0.22c0.47,0.26,0.61,0.81,0.34,1.28
	c-0.04,0.07-0.04,0.2-0.01,0.28c0.09,0.2,0.2,0.4,0.31,0.59c0,0.08,0,0.16,0,0.24c-0.13,0.16-0.26,0.33-0.39,0.49
	c-0.04,0.05-0.11,0.11-0.1,0.16c0.03,0.37-0.3,0.56-0.44,0.84c-0.11,0.24-0.18,0.42-0.05,0.67c0.14,0.29,0.06,0.51-0.21,0.67
	c-0.16,0.09-0.2,0.21-0.17,0.38c0.04,0.25-0.04,0.46-0.29,0.57c-0.16,0.07-0.23,0.21-0.2,0.37c0.04,0.18,0.02,0.33-0.1,0.47
	c-0.1,0.11-0.07,0.24,0.06,0.3c0.17,0.08,0.25,0.21,0.3,0.38c0.02,0.07,0.07,0.14,0.13,0.19c0.34,0.3,0.36,0.46,0.06,0.82
	c-0.1,0.12-0.14,0.22,0,0.35c0.18,0.18,0.18,0.4,0.14,0.63c-0.03,0.15-0.06,0.31-0.06,0.47c-0.02,0.33-0.13,0.44-0.45,0.52
	c-0.13,0.03-0.31,0.13-0.33,0.22c-0.08,0.36-0.31,0.54-0.62,0.67c-0.14,0.06-0.19,0.16-0.13,0.31c0.15,0.4,0.1,0.49-0.31,0.62
	c-0.17,0.05-0.24,0.13-0.17,0.32c0.03,0.08,0,0.19-0.03,0.27c-0.07,0.17-0.16,0.32-0.24,0.49c-0.07,0.15-0.15,0.29-0.34,0.28
	c-0.45-0.01-0.5,0.02-0.66,0.45c-0.08,0.21-0.21,0.33-0.46,0.26c-0.07-0.03-0.21,0.01-0.24,0.07c-0.09,0.17-0.22,0.26-0.42,0.28
	c-0.05,0-0.12,0.04-0.14,0.07c-0.14,0.23-0.36,0.33-0.61,0.39c-0.1,0.03-0.2,0.1-0.3,0.15c0.02,0.06,0.04,0.09,0.05,0.13
	c0.08,0.32,0.01,0.41-0.31,0.47c-0.09,0.01-0.17,0.07-0.24,0.12c-0.07,0.04-0.12,0.14-0.18,0.15c-0.52,0.1-1.04,0.08-1.54-0.13
	c-0.08-0.03-0.2,0.01-0.29,0.04c-0.04,0.02-0.07,0.08-0.11,0.13c-0.22,0.32-0.22,0.3-0.59,0.22c-0.13-0.03-0.31-0.02-0.43,0.04
	c-0.2,0.11-0.38,0.19-0.59,0.03c-0.04-0.02-0.11-0.01-0.16,0c-0.21,0.05-0.42,0.11-0.63,0.15c-0.22,0.05-0.45,0.11-0.68,0.14
	c-0.08,0.01-0.23-0.05-0.25-0.11c-0.05-0.15-0.15-0.17-0.27-0.18c-0.58-0.05-1.11-0.19-1.51-0.67c-0.21-0.25-0.5-0.29-0.82-0.21
	c-0.33,0.09-0.49,0.02-0.62-0.28c-0.09-0.19-0.2-0.24-0.39-0.22c-0.11,0.01-0.22,0-0.33,0c-0.47,0.01-0.95,0.07-1.41-0.08
	c-0.09-0.03-0.21-0.03-0.31,0.01c-0.56,0.23-1.07,0.55-1.47,1.02c-0.31,0.36-0.3,0.85-0.35,1.3c-0.07,0.56-0.03,1.14-0.18,1.67
	c-0.32,1.14-0.61,2.29-0.85,3.45c-0.06,0.3-0.1,0.64-0.04,0.95c0.12,0.56,0.12,1.11,0.09,1.67c-0.04,0.79-0.04,1.6-0.1,2.4
	c-0.05,0.68,0.24,1.11,0.81,1.44c0.48,0.28,0.93,0.61,1.37,0.93c0.09,0.06,0.14,0.18,0.2,0.28c-0.1,0.07-0.2,0.16-0.31,0.2
	c-0.41,0.14-0.82,0.06-1.23-0.05c-0.44-0.13-0.88-0.23-1.33-0.31c-0.13-0.02-0.34,0.05-0.41,0.15c-0.06,0.08,0,0.29,0.06,0.41
	c0.12,0.22,0.28,0.43,0.42,0.64c0.07,0.11,0.12,0.21-0.01,0.32c-0.08,0-0.16,0-0.24,0c-0.81-0.24-1.63-0.47-2.44-0.73
	c-0.75-0.25-1.5-0.29-2.27-0.15c-0.57,0.1-1.16,0.15-1.74,0.21c-0.28,0.03-0.51-0.07-0.68-0.3c-0.25-0.34-0.56-0.41-0.96-0.3
	c-0.56,0.15-1.14,0.29-1.7,0.42c-0.11,0.02-0.24-0.01-0.35-0.02c-0.01-0.02-0.01-0.05-0.02-0.07c0.08-0.09,0.15-0.2,0.24-0.29
	c0.22-0.2,0.48-0.38,0.69-0.6c0.2-0.21,0.4-0.44,0.52-0.7c0.2-0.43,0.36-0.9,0.48-1.36c0.25-0.95,0.6-1.84,1.28-2.58
	c0.22-0.24,0.37-0.57,0.47-0.88c0.19-0.58,0.36-1.18,0.49-1.78c0.08-0.38,0.11-0.78,0.11-1.17c0.01-0.32-0.05-0.65-0.31-0.86
	c-0.71-0.58-1.12-1.39-1.7-2.07c-0.63-0.75-1.15-1.58-1.72-2.37c-0.07-0.1-0.13-0.19-0.22-0.32c-0.08,0.09-0.15,0.15-0.19,0.21
	c-0.22,0.33-0.3,0.34-0.7,0.28c-0.22-0.03-0.46,0.02-0.67,0.09c-0.19,0.07-0.35,0.22-0.52,0.33c-0.34,0.23-0.71,0.25-1.08,0.12
	c-0.15-0.05-0.28-0.16-0.43-0.21c-0.17-0.05-0.38-0.14-0.53-0.09c-0.51,0.21-1.02,0.13-1.37-0.21c-0.33-0.31-0.57-0.17-0.89-0.08
	c-0.52,0.14-1.04,0.22-1.51-0.16c-0.05-0.04-0.15-0.04-0.22-0.03c-0.51,0.03-1,0.02-1.43-0.29c-0.46-0.34-0.92-0.69-1.38-1.05
	c-0.29-0.23-0.5-0.52-0.51-0.91c-0.01-0.25-0.13-0.41-0.32-0.56c-0.12-0.09-0.25-0.2-0.32-0.34c-0.26-0.55-0.5-1.11-0.76-1.66
	c-0.17-0.36-0.26-0.73-0.26-1.13c0-0.51,0.03-1.03-0.28-1.49c-0.06-0.08-0.06-0.22-0.06-0.32c0.01-0.19-0.07-0.28-0.23-0.35
	c-0.28-0.12-0.32-0.22-0.22-0.51c0.15-0.39,0.15-0.39-0.17-0.67c-0.15-0.12-0.16-0.25-0.12-0.43c0.03-0.11,0.01-0.23,0.01-0.34
	c-0.12,0-0.25-0.02-0.36,0.02c-0.17,0.07-0.32,0.05-0.4-0.1c-0.15-0.27-0.31-0.54-0.39-0.84c-0.06-0.22-0.11-0.43-0.28-0.59
	c-0.18-0.17-0.19-0.35-0.09-0.59c0.06-0.15,0.06-0.36,0-0.5c-0.14-0.32-0.34-0.61-0.52-0.91c0-0.06,0-0.13,0-0.19
	c0.08-0.1,0.16-0.2,0.25-0.29c0.13-0.12,0.18-0.24,0.08-0.42c-0.04-0.09-0.02-0.27,0.05-0.34c0.14-0.14,0.14-0.26,0.09-0.43
	c-0.15-0.49-0.06-0.7,0.38-0.95c0.07-0.04,0.15-0.16,0.14-0.23C2,17.08,2.03,17.03,2.47,16.9c0.08-0.02,0.16-0.08,0.23-0.15
	c0.11-0.11,0.19-0.26,0.32-0.35c0.21-0.16,0.3-0.36,0.34-0.6c0.03-0.16,0.14-0.31,0.22-0.46c0.06-0.11,0.16-0.2,0.18-0.31
	c0.05-0.27,0.23-0.44,0.5-0.51c0.09-0.02,0.19-0.11,0.22-0.19c0.11-0.26,0.17-0.53,0.28-0.78c0.26-0.56,0.47-1.13,0.53-1.76
	c0.06-0.66,0.38-1.17,1.06-1.38c0.06-0.02,0.13-0.08,0.14-0.14c0.13-0.6,0.55-0.9,1.09-1.08c0.16-0.05,0.22-0.14,0.2-0.31
	c-0.04-0.36,0.11-0.65,0.41-0.8c0.43-0.22,0.9-0.38,1.35-0.56c0.19-0.07,0.28-0.17,0.3-0.38c0.05-0.59,0.34-0.77,0.93-0.77
	c0.4,0,0.81-0.09,1.18-0.23c0.43-0.16,0.65-0.17,0.99,0.12c0.24,0.2,0.33,0.18,0.52-0.08c0.09-0.12,0.22-0.25,0.36-0.29
	c0.17-0.04,0.36-0.01,0.54,0.02C14.73,6,15.08,6.14,15.43,5.9c0.02-0.02,0.06-0.02,0.09-0.02c0.2-0.01,0.3-0.13,0.36-0.3
	c0.14-0.35,0.21-0.37,0.59-0.32c0.12,0.02,0.28,0,0.37-0.07c0.34-0.28,0.66-0.58,0.98-0.88c0.1-0.1,0.18-0.22,0.27-0.33
	c0.13-0.13,0.25-0.29,0.41-0.37c0.16-0.09,0.37-0.11,0.56-0.15c0.32-0.06,0.56-0.22,0.78-0.47c0.24-0.26,0.53-0.5,0.85-0.65
	c0.34-0.16,0.62-0.38,0.85-0.68c0.45-0.57,0.77-0.51,1.15-0.07c0.2,0.22,0.49,0.15,0.58-0.13C23.45,0.94,23.77,0.58,24.28,0.37z
	 M23.3,33.67c-0.27-0.06-0.53-0.11-0.79-0.17c-0.1-0.02-0.21-0.08-0.3-0.06c-0.42,0.08-0.74-0.08-1.03-0.38
	c-0.14-0.14-0.3-0.19-0.5-0.06c-0.22,0.15-0.47,0.14-0.71,0.02c-0.08-0.04-0.18-0.08-0.27-0.1c-0.2-0.05-0.3,0.08-0.41,0.21
	c-0.11,0.13-0.05,0.23,0.02,0.32c0.2,0.25,0.4,0.5,0.6,0.74c0.21,0.26,0.45,0.5,0.64,0.77c0.49,0.72,1.17,1.18,1.95,1.6
	C22.72,35.54,23.24,34.64,23.3,33.67z M29.03,31.99c0.77-0.32,1.25-0.94,1.96-1.31c-0.19-0.11-0.32-0.19-0.46-0.25
	c-0.23-0.1-0.4-0.24-0.49-0.49c-0.04-0.11-0.16-0.23-0.27-0.27c-0.2-0.08-0.42-0.12-0.62-0.17C29.28,30.29,29.13,31.12,29.03,31.99z
	 M31.58,32.15c0.37,0.09,0.71,0.17,1.05,0.25c0.01-0.04,0.03-0.07,0.05-0.11c-0.25-0.2-0.51-0.39-0.78-0.59
	C31.79,31.86,31.7,31.98,31.58,32.15z"/>
</svg>
