<?xml version="1.0" encoding="utf-8"?>
<!-- Generator: Adobe Illustrator 24.0.1, SVG Export Plug-In . SVG Version: 6.00 Build 0)  -->
<svg version="1.1" id="Layer_1" xmlns="http://www.w3.org/2000/svg" xmlns:xlink="http://www.w3.org/1999/xlink" x="0px" y="0px"
	 viewBox="0 0 50 50" style="enable-background:new 0 0 50 50;" xml:space="preserve">
<style type="text/css">
	.st0{fill:#FFFFFF;}
</style>
<g>
	<g>
		<path class="st0" d="M36.5,10.62c0,0,0.93,4.61-1.99,7.81c-2.92,3.2-8.59,3.78-8.59,3.78s-0.93-4.61,1.99-7.81
			C30.83,11.2,36.5,10.62,36.5,10.62z"/>
		<path class="st0" d="M36.5,20.95c0,0,0.93,4.61-1.99,7.81c-2.92,3.2-8.59,3.77-8.59,3.77s-0.93-4.61,1.99-7.81
			C30.83,21.53,36.5,20.95,36.5,20.95z"/>
		<path class="st0" d="M23.29,32.54c0,0,0.93-4.61-1.99-7.81c-2.92-3.2-8.59-3.78-8.59-3.78s-0.93,4.61,1.99,7.81
			C17.62,31.96,23.29,32.54,23.29,32.54z"/>
		<path class="st0" d="M23.29,22.2c0,0,0.93-4.61-1.99-7.81c-2.92-3.2-8.59-3.78-8.59-3.78s-0.93,4.61,1.99,7.81
			C17.62,21.63,23.29,22.2,23.29,22.2z"/>
		<path class="st0" d="M24.54,14.56c0,0,4.15-3.21,4.18-7.2c0.03-3.99-4.06-7.25-4.06-7.25s-4.15,3.21-4.18,7.2
			C20.45,11.3,24.54,14.56,24.54,14.56z"/>
	</g>
	<path class="st0" d="M36.5,31.28c0,0-5.67,0.58-8.59,3.77c-1.01,1.11-1.55,2.39-1.84,3.58c-0.1,0.31-0.59,1.66-1.41,1.71
		c-0.02,0-0.03-0.01-0.05-0.01c-0.96-0.01-1.47-1.78-1.47-1.78l0,0.03c-0.29-1.19-0.83-2.44-1.83-3.54
		c-2.92-3.2-8.59-3.77-8.59-3.77s-0.93,4.61,1.99,7.81c2.35,2.57,6.47,3.45,8,3.69v5.11c0,1.06,0.85,1.91,1.91,1.91
		c1.05,0,1.91-0.85,1.91-1.91v-5.11c1.52-0.25,5.65-1.12,8-3.69C37.43,35.89,36.5,31.28,36.5,31.28z"/>
</g>
</svg>
