<svg xmlns="http://www.w3.org/2000/svg" width="48" height="48" viewBox="0 0 48 48"><defs><style>.a{fill:rgba(255,255,255,0);}.b{fill:#336094;fill-rule:evenodd;}</style></defs><g transform="translate(-50 -980)"><rect class="a" width="48" height="48" transform="translate(50 980)"/><g transform="translate(53.9 983.55)"><path class="b" d="M40.56,12.27H48V41.491H40.56C40.56,31.778,40.56,22.056,40.56,12.27Z" transform="translate(-7.899 -2.112)"/><path class="b" d="M14.4,19.12h7.468V42.845H14.4C14.4,34.95,14.4,27.063,14.4,19.12Z" transform="translate(-2.792 -3.45)"/><path class="b" d="M34.945,23.718V43.741H27.452c-.008-.209-.024-.4-.024-.6V35.653c0-3.791.008-7.573-.008-11.363,0-.443.113-.587.571-.579,2.125.024,4.249.008,6.366.008Z" transform="translate(-5.333 -4.346)"/><path class="b" d="M8.806,44.981H1.37V30.02H8.806Z" transform="translate(-0.248 -5.577)"/><path class="b" d="M15.206,6.882q4.454,3.139,9.062,6.382c2.495-2.607,4.974-5.207,7.5-7.847-.531-.41-1.038-.8-1.61-1.247,2.3-.909,4.523-1.795,6.865-2.72-.66,2.2-1.28,4.289-1.923,6.438-.547-.4-1.046-.781-1.6-1.191q-4.442,4.684-8.925,9.408c-3-2.109-6.084-4.281-9.174-6.454-4.619,4.265-9.223,8.515-13.85,12.8-.5-.531-.958-1.03-1.449-1.569C5.122,16.218,10.136,11.574,15.206,6.882Z" transform="translate(0)"/></g></g></svg>