<svg xmlns="http://www.w3.org/2000/svg" width="48" height="48" viewBox="0 0 48 48"><defs><style>.a{fill:rgba(255,255,255,0);}.b{fill:#104734;}</style></defs><g transform="translate(-842 -188)"><rect class="a" width="48" height="48" transform="translate(842 188)"/><g transform="translate(845.14 190.007)"><path class="b" d="M39.107,14.011a34.8,34.8,0,0,0-9.372-3.2,34.235,34.235,0,0,0-9.885-.7c-3.077.306-5.154,1.357-5.5,3.061a2.205,2.205,0,0,0-.05.463l-.041.008-.835,4.12-.017.1a3.457,3.457,0,0,0,.116,1.365,3.671,3.671,0,0,0,.629,1.224l.025.033a13.307,13.307,0,0,0,4.9,3.251,38.4,38.4,0,0,0,7.561,2.316,37.049,37.049,0,0,0,8.421.8c2.614-.083,4.7-.587,5.84-1.472a3.152,3.152,0,0,0,.753-.8,2.667,2.667,0,0,0,.4-1.1l.869-4.285a2.074,2.074,0,0,0,.058-.215C43.326,17.27,41.821,15.5,39.107,14.011ZM16.061,18.958h0a1.417,1.417,0,0,1-.215-.414,1.069,1.069,0,0,1-.033-.364l.3-1.448c.05.041.1.083.157.124.083.066.165.132.256.2l-.4,1.977A.676.676,0,0,0,16.061,18.958Zm1.224,1.075a7.114,7.114,0,0,1-.811-.637L16.9,17.32c.256.174.538.356.835.529Zm1.63.943q-.459-.236-.869-.472l.455-2.234c.281.149.571.29.877.438ZM21,21.9c-.331-.132-.654-.265-.96-.4-.116-.05-.232-.1-.347-.157l.463-2.291c.3.132.612.256.926.381.124.05.256.1.381.149Zm2.449.844c-.48-.149-.951-.3-1.4-.455l.472-2.325c.455.157.918.306,1.4.447Zm2.829.736c-.48-.108-.96-.223-1.423-.347l.472-2.341c.347.091.695.174,1.051.256h.008l.165.041h.008l.149.033.025.008.025.008ZM40.29,18.817a1.894,1.894,0,0,1-.687.323l-.074.025a9.817,9.817,0,0,1-2.1.438H37.4a23.078,23.078,0,0,1-3.466.083h-.017a36.647,36.647,0,0,1-4.376-.472h-.008c-.91-.149-1.82-.331-2.713-.546a36.128,36.128,0,0,1-4.864-1.489,16.648,16.648,0,0,1-4.186-2.225,3.142,3.142,0,0,1-.918-1.1,2.482,2.482,0,0,1-.124-.215c.116-.538,1.39-.935,3.359-1.133a32.346,32.346,0,0,1,9.166.678,32.159,32.159,0,0,1,8.7,2.945c1.7.935,2.713,1.77,2.655,2.316A1.417,1.417,0,0,1,40.29,18.817Z" transform="translate(-2.164)"/><path class="b" d="M21.044,28.886a37.689,37.689,0,0,1-4.095.364h-.008c-.918.033-1.845.033-2.771.008a36.511,36.511,0,0,1-5.063-.488,16.944,16.944,0,0,1-4.55-1.348,3.231,3.231,0,0,1-1.117-.893c-.05-.058-.108-.116-.165-.182,0-.554,1.175-1.191,3.069-1.779A24.549,24.549,0,0,1,10.58,23.7a3.647,3.647,0,0,1-.571-1.15,3.455,3.455,0,0,1-.132-1.2,26.985,26.985,0,0,0-4.235.9C2.688,23.17.86,24.6.86,26.338A2.837,2.837,0,0,0,.9,26.8l-.041.017v4.2l.008.108a3.5,3.5,0,0,0,.389,1.315,3.882,3.882,0,0,0,.86,1.075l.025.025a13.305,13.305,0,0,0,5.443,2.209,38.489,38.489,0,0,0,7.875.769,37.46,37.46,0,0,0,8.413-.885c2.548-.6,4.484-1.514,5.435-2.606a3.048,3.048,0,0,0,.579-.935,2.472,2.472,0,0,0,.165-1.158v-.761a39.122,39.122,0,0,1-6.932-.811C22.409,29.217,21.723,29.06,21.044,28.886ZM3.755,31.732c-.025-.017-.05-.041-.074-.058h0a1.435,1.435,0,0,1-.29-.364.992.992,0,0,1-.108-.356V29.473c.058.033.116.058.182.091a3.125,3.125,0,0,0,.29.141v2.027Zm1.348.753a8.044,8.044,0,0,1-.926-.463V29.9c.29.124.6.24.926.356Zm1.779.6c-.331-.091-.645-.19-.943-.29V30.516q.459.136.943.248Zm2.225.488q-.521-.087-1.017-.2c-.124-.025-.248-.058-.372-.083V30.954c.323.066.645.132.984.19.132.025.273.05.405.066Zm2.564.339c-.5-.05-.993-.1-1.464-.165V31.376c.472.058.96.116,1.464.157Zm2.92.165c-.5-.008-.984-.025-1.464-.058V31.632c.356.017.711.033,1.075.041h.008l.174.008h.207Z" transform="translate(0 -1.962)"/></g></g></svg>