<?xml version="1.0" encoding="UTF-8" standalone="no"?>
<!-- Generator: Adobe Illustrator 24.0.1, SVG Export Plug-In . SVG Version: 6.00 Build 0)  -->

<svg
   version="1.1"
   id="Layer_1"
   x="0px"
   y="0px"
   viewBox="0 0 50 50"
   style="enable-background:new 0 0 50 50;"
   xml:space="preserve"
   sodipodi:docname="50x50_Cocoa.svg"
   inkscape:version="1.1.1 (3bf5ae0d25, 2021-09-20)"
   xmlns:inkscape="http://www.inkscape.org/namespaces/inkscape"
   xmlns:sodipodi="http://sodipodi.sourceforge.net/DTD/sodipodi-0.dtd"
   xmlns="http://www.w3.org/2000/svg"
   xmlns:svg="http://www.w3.org/2000/svg"><defs
   id="defs37" /><sodipodi:namedview
   id="namedview35"
   pagecolor="#ffffff"
   bordercolor="#666666"
   borderopacity="1.0"
   inkscape:pageshadow="2"
   inkscape:pageopacity="0.0"
   inkscape:pagecheckerboard="0"
   showgrid="false"
   inkscape:zoom="16.64"
   inkscape:cx="24.969952"
   inkscape:cy="24.969952"
   inkscape:window-width="1920"
   inkscape:window-height="1017"
   inkscape:window-x="-8"
   inkscape:window-y="-8"
   inkscape:window-maximized="1"
   inkscape:current-layer="Layer_1" />
<style
   type="text/css"
   id="style28">
	.st0{fill:#C5B22F;}
</style>
<g
   id="g32"
   transform="matrix(0.8740889,0,0,0.8740889,3.1555563,3.1521844)">
	<path
   class="st0"
   d="m 24.27,30.63 h -3.73 c -1.42,0 -2.57,-1.1 -2.57,-2.44 0,-1.33 1.15,-2.44 2.57,-2.44 h 3.73 c 1.42,0 2.57,1.1 2.57,2.44 0,1.34 -1.15,2.44 -2.57,2.44 m -1.01,5.95 h -2.95 c -1.42,0 -2.57,-1.1 -2.57,-2.44 0,-1.33 1.15,-2.44 2.57,-2.44 h 2.95 c 1.42,0 2.57,1.1 2.57,2.44 0,1.34 -1.15,2.44 -2.57,2.44 m -2.65,5.78 h -0.66 c -1.42,0 -2.57,-1.1 -2.57,-2.44 0,-1.33 1.15,-2.44 2.57,-2.44 h 0.66 c 1.42,0 2.57,1.1 2.57,2.44 0,1.34 -1.15,2.44 -2.57,2.44 m -1.41,3.5 c -0.8,0 -1.45,-0.61 -1.45,-1.36 0,-0.75 0.65,-1.36 1.45,-1.36 0.8,0 1.45,0.61 1.45,1.36 0,0.75 -0.65,1.36 -1.45,1.36 M 18.6,10.92 c 0.8,0 1.45,0.61 1.45,1.37 0,0.75 -0.65,1.36 -1.45,1.36 -0.8,0 -1.45,-0.61 -1.45,-1.36 -0.01,-0.76 0.64,-1.37 1.45,-1.37 m 2.31,3.29 c 1.42,0 2.57,1.01 2.57,2.35 0,1.33 -1.15,2.35 -2.57,2.35 h -0.64 c -1.42,0 -2.57,-1.01 -2.57,-2.35 0,-1.33 1.15,-2.35 2.57,-2.35 h 0.64 z m 4.92,8.03 c 0,1.33 -1.15,2.44 -2.57,2.44 h -2.72 c -1.42,0 -2.57,-1.1 -2.57,-2.44 0,-1.33 1.15,-2.44 2.57,-2.44 h 2.72 c 1.42,0.01 2.57,1.11 2.57,2.44 M 15.17,45.86 c -0.81,0 -1.47,-0.62 -1.47,-1.38 0,-0.76 0.66,-1.38 1.47,-1.38 0.81,0 1.47,0.62 1.47,1.38 0,0.76 -0.65,1.38 -1.47,1.38 m -4.68,-5.94 c 0,-1.33 1.15,-2.44 2.57,-2.44 h 0.66 c 1.42,0 2.57,1.1 2.57,2.44 0,1.33 -1.15,2.44 -2.57,2.44 h -0.66 c -1.42,0 -2.57,-1.1 -2.57,-2.44 m -2.9,-5.95 c 0,-1.33 1.15,-2.44 2.57,-2.44 h 2.89 c 1.42,0 2.57,1.1 2.57,2.44 0,1.33 -1.15,2.44 -2.57,2.44 H 10.16 C 8.74,36.4 7.59,35.3 7.59,33.97 m -1,-5.95 c 0,-1.34 1.15,-2.44 2.57,-2.44 h 3.88 c 1.42,0 2.57,1.1 2.57,2.44 0,1.33 -1.15,2.44 -2.57,2.44 H 9.16 C 7.74,30.45 6.59,29.35 6.59,28.02 m 3.57,-8.21 h 2.89 c 1.42,0 2.57,1.1 2.57,2.44 0,1.33 -1.15,2.44 -2.57,2.44 h -2.89 c -1.42,0 -2.57,-1.1 -2.57,-2.44 0,-1.34 1.15,-2.44 2.57,-2.44 m 2.48,-5.6 h 0.64 c 1.42,0 2.57,1.01 2.57,2.35 0,1.33 -1.15,2.35 -2.57,2.35 h -0.64 c -1.42,0 -2.57,-1.01 -2.57,-2.35 0,-1.33 1.15,-2.35 2.57,-2.35 m 1.94,-3.33 c 0.81,0 1.47,0.62 1.47,1.38 0,0.76 -0.66,1.38 -1.47,1.38 -0.81,0 -1.47,-0.62 -1.47,-1.38 -0.01,-0.76 0.65,-1.38 1.47,-1.38 M 18.42,7.43 C 18.03,7.21 17.75,6.85 17.66,6.42 17.27,4.6 17.55,2.64 18.01,0.6 18.05,0.4 17.89,0.23 17.69,0.23 c -0.02,0 -0.04,0 -0.07,0.01 L 15.48,0.65 C 15.3,0.68 15.19,0.85 15.23,1.01 15.67,3.08 16,5.06 15.78,6.5 15.71,6.95 15.43,7.35 15.02,7.59 11.38,9.66 3.66,15.56 3.66,28.25 c 0,15.77 13.22,21.59 13.22,21.59 0,0 13.21,-4.37 13.21,-21.59 C 30.09,15.36 21.9,9.38 18.42,7.43 M 41.79,18.44 C 33.78,6.56 22.21,6.54 19.12,6.77 c 0.33,0.19 0.69,0.41 1.08,0.66 0.02,0.01 0.04,0.01 0.06,0.02 0.24,0.07 0.51,0.16 0.81,0.27 0.3,0.11 0.65,0.23 1.01,0.37 0.36,0.15 0.75,0.31 1.16,0.49 0.41,0.19 0.84,0.4 1.29,0.62 0.45,0.23 0.91,0.49 1.4,0.75 0.24,0.14 0.48,0.29 0.72,0.43 0.24,0.15 0.5,0.3 0.75,0.46 0.49,0.33 1.01,0.66 1.52,1.04 0.26,0.19 0.52,0.37 0.77,0.57 0.25,0.2 0.51,0.41 0.77,0.61 0.13,0.1 0.26,0.21 0.39,0.31 0.13,0.11 0.25,0.22 0.38,0.33 0.25,0.22 0.51,0.44 0.77,0.67 0.5,0.47 1.01,0.94 1.49,1.45 0.24,0.25 0.5,0.5 0.73,0.77 0.24,0.27 0.47,0.53 0.71,0.8 0.93,1.08 1.82,2.23 2.63,3.42 0.8,1.2 1.56,2.43 2.19,3.68 0.17,0.31 0.32,0.63 0.47,0.94 0.15,0.32 0.3,0.63 0.43,0.94 0.13,0.32 0.27,0.63 0.4,0.94 0.13,0.31 0.24,0.63 0.36,0.94 0.06,0.15 0.12,0.31 0.17,0.47 0.05,0.16 0.1,0.31 0.15,0.47 0.1,0.31 0.2,0.62 0.3,0.92 0.09,0.31 0.17,0.61 0.25,0.92 0.04,0.15 0.08,0.3 0.12,0.45 0.03,0.15 0.07,0.3 0.1,0.45 0.07,0.3 0.13,0.59 0.2,0.88 0.05,0.29 0.1,0.58 0.15,0.86 0.11,0.56 0.16,1.11 0.23,1.63 0.04,0.26 0.05,0.52 0.07,0.77 0.02,0.25 0.04,0.5 0.05,0.74 0.02,0.48 0.02,0.94 0.03,1.36 -0.01,0.43 -0.02,0.83 -0.04,1.2 0,0.09 -0.01,0.18 -0.01,0.27 -0.01,0.09 -0.01,0.18 -0.02,0.26 -0.01,0.17 -0.03,0.33 -0.04,0.48 -0.04,0.61 -0.14,1.08 -0.19,1.41 -0.05,0.32 -0.08,0.49 -0.08,0.49 0,0 -0.01,-0.17 -0.03,-0.5 -0.01,-0.32 -0.03,-0.8 -0.08,-1.4 -0.04,-0.6 -0.13,-1.33 -0.24,-2.16 -0.07,-0.41 -0.13,-0.85 -0.22,-1.31 -0.1,-0.46 -0.18,-0.94 -0.3,-1.44 -0.13,-0.5 -0.23,-1.02 -0.39,-1.55 C 41.52,33.65 41.44,33.38 41.37,33.11 41.28,32.84 41.19,32.56 41.1,32.28 41.06,32.14 41.01,32 40.97,31.86 40.92,31.72 40.87,31.58 40.82,31.44 40.72,31.16 40.62,30.87 40.51,30.58 40.4,30.29 40.28,30 40.16,29.71 40.1,29.56 40.04,29.42 39.99,29.27 39.93,29.12 39.86,28.98 39.8,28.83 39.31,27.65 38.7,26.46 38.07,25.28 37.9,24.98 37.74,24.69 37.57,24.39 37.39,24.1 37.22,23.81 37.04,23.51 36.87,23.21 36.68,22.93 36.49,22.64 36.3,22.35 36.12,22.06 35.92,21.78 l -0.59,-0.85 c -0.2,-0.28 -0.41,-0.55 -0.61,-0.83 l -0.31,-0.41 -0.32,-0.4 c -0.21,-0.27 -0.42,-0.54 -0.64,-0.8 -0.87,-1.05 -1.78,-2.05 -2.69,-2.98 -0.93,-0.92 -1.85,-1.8 -2.78,-2.57 -0.45,-0.4 -0.92,-0.76 -1.37,-1.12 -0.45,-0.36 -0.9,-0.67 -1.32,-1 -0.44,-0.3 -0.86,-0.6 -1.26,-0.87 C 23.62,9.69 23.23,9.43 22.86,9.2 22.48,8.98 22.13,8.77 21.81,8.57 21.75,8.53 21.69,8.5 21.63,8.47 c 3.42,2.61 7.8,7.4 9.06,15.26 0.15,0.22 0.3,0.43 0.44,0.65 0.73,1.09 1.46,2.18 2.17,3.26 0.35,0.54 0.7,1.08 1.04,1.61 0.34,0.53 0.68,1.06 1.01,1.58 1.02,1.6 1.96,3.13 2.79,4.52 0.25,0.41 0.49,0.81 0.72,1.2 0.5,0.85 0.95,1.62 1.34,2.32 0.4,0.69 0.73,1.31 1.01,1.81 0.28,0.5 0.48,0.9 0.63,1.17 0.14,0.27 0.22,0.42 0.22,0.42 0,0 -0.11,-0.13 -0.31,-0.36 -0.2,-0.24 -0.5,-0.59 -0.86,-1.04 -0.36,-0.45 -0.81,-0.99 -1.31,-1.63 -0.5,-0.63 -1.06,-1.35 -1.66,-2.13 -0.14,-0.19 -0.29,-0.38 -0.44,-0.58 -1.09,-1.44 -2.31,-3.09 -3.57,-4.85 -0.36,-0.5 -0.72,-1.01 -1.09,-1.53 -0.37,-0.52 -0.74,-1.04 -1.1,-1.57 -0.23,-0.33 -0.46,-0.67 -0.69,-1 0.01,0.23 0.01,0.46 0.01,0.69 0,2.16 -0.21,4.23 -0.62,6.18 0.43,0.46 0.89,0.89 1.32,1.32 0.23,0.21 0.46,0.42 0.68,0.63 0.11,0.11 0.23,0.21 0.34,0.31 0.12,0.1 0.23,0.2 0.34,0.3 0.23,0.2 0.45,0.39 0.67,0.59 0.23,0.18 0.45,0.37 0.67,0.55 0.43,0.37 0.88,0.69 1.3,1.01 0.42,0.32 0.84,0.6 1.23,0.89 0.4,0.28 0.79,0.52 1.15,0.77 0.73,0.46 1.38,0.87 1.93,1.17 0.54,0.32 0.98,0.54 1.28,0.7 0.3,0.16 0.46,0.25 0.46,0.25 0,0 -0.17,-0.05 -0.5,-0.15 -0.33,-0.1 -0.82,-0.24 -1.41,-0.47 -0.61,-0.21 -1.32,-0.52 -2.14,-0.89 -0.4,-0.2 -0.83,-0.4 -1.27,-0.63 -0.22,-0.12 -0.44,-0.24 -0.67,-0.37 -0.23,-0.13 -0.47,-0.26 -0.7,-0.4 -0.47,-0.29 -0.96,-0.58 -1.44,-0.92 -0.25,-0.16 -0.49,-0.33 -0.75,-0.51 -0.24,-0.18 -0.49,-0.36 -0.75,-0.55 -0.13,-0.09 -0.25,-0.19 -0.38,-0.28 -0.12,-0.1 -0.25,-0.2 -0.37,-0.3 -0.25,-0.2 -0.5,-0.41 -0.76,-0.61 -0.22,-0.19 -0.45,-0.39 -0.67,-0.59 -0.3,1.04 -0.65,2.04 -1.07,3 -0.13,0.3 -0.27,0.59 -0.41,0.89 7.33,4.05 14.42,3.21 14.42,3.21 0,0 8.68,-10.37 -1.13,-24.93"
   id="path30" />
</g>
</svg>
