<svg xmlns="http://www.w3.org/2000/svg" width="48" height="48" viewBox="0 0 48 48"><defs><style>.a{fill:rgba(255,255,255,0);}.b{fill:#0a3254;}</style></defs><g transform="translate(-446 -584)"><rect class="a" width="48" height="48" transform="translate(446 584)"/><g transform="translate(447.43 587.89)"><g transform="translate(12.569 0.11)"><path class="b" d="M34.411,10.62s.749,3.712-1.6,6.288-6.916,3.043-6.916,3.043-.749-3.712,1.6-6.288S34.411,10.62,34.411,10.62Z" transform="translate(-15.143 -2.158)"/><path class="b" d="M34.411,20.95s.749,3.712-1.6,6.288-6.916,3.035-6.916,3.035-.749-3.712,1.6-6.288S34.411,20.95,34.411,20.95Z" transform="translate(-15.143 -4.171)"/><path class="b" d="M21.2,30.282s.749-3.712-1.6-6.288-6.916-3.043-6.916-3.043-.749,3.712,1.6,6.288S21.2,30.282,21.2,30.282Z" transform="translate(-12.569 -4.171)"/><path class="b" d="M21.2,19.942s.749-3.712-1.6-6.288-6.916-3.043-6.916-3.043-.749,3.712,1.6,6.288S21.2,19.942,21.2,19.942Z" transform="translate(-12.569 -2.156)"/><path class="b" d="M23.749,11.744s3.341-2.585,3.366-5.8S23.845.11,23.845.11,20.5,2.695,20.48,5.907,23.749,11.744,23.749,11.744Z" transform="translate(-14.111 -0.11)"/></g><path class="b" d="M31.839,31.278s-4.565.467-6.916,3.035A6.511,6.511,0,0,0,23.441,37.2c-.081.25-.475,1.337-1.135,1.377-.016,0-.024-.008-.04-.008-.773-.008-1.184-1.433-1.184-1.433v.024a6.43,6.43,0,0,0-1.473-2.85c-2.351-2.576-6.916-3.035-6.916-3.035s-.749,3.712,1.6,6.288c1.892,2.069,5.209,2.778,6.441,2.971v4.114a1.538,1.538,0,1,0,3.076,0V40.529c1.224-.2,4.549-.9,6.441-2.971C32.588,34.99,31.839,31.278,31.839,31.278Z" transform="translate(-0.002 -6.072)"/></g></g></svg>