<?xml version="1.0" encoding="utf-8"?>
<!-- Generator: Adobe Illustrator 24.0.1, SVG Export Plug-In . SVG Version: 6.00 Build 0)  -->
<svg version="1.1" id="Layer_1" xmlns="http://www.w3.org/2000/svg" xmlns:xlink="http://www.w3.org/1999/xlink" x="0px" y="0px"
	 viewBox="0 0 50 50" style="enable-background:new 0 0 50 50;" xml:space="preserve">
<style type="text/css">
	.st0{fill-rule:evenodd;clip-rule:evenodd;fill:#287151;}
</style>
<g>
	<path class="st0" d="M49.84,38.01c-0.64,1.51-1.81,1.94-3.38,1.92c-5.83-0.05-11.66-0.02-17.49-0.02c-0.8,0-1.52-0.17-2.1-0.75
		c-0.62-0.62-0.91-1.36-0.6-2.23c1.15-3.23,2.3-6.45,3.49-9.67c0.36-0.98,1.19-1.5,2.19-1.51c4.03-0.04,8.05-0.05,12.08,0
		c1.09,0.01,1.88,0.65,2.26,1.73c1.11,3.09,2.23,6.16,3.35,9.25c0.05,0.14,0.13,0.25,0.19,0.38C49.84,37.41,49.84,37.71,49.84,38.01
		z"/>
	<path class="st0" d="M11.89,39.9c-3.06,0-6.12,0.01-9.19-0.01c-1.34,0-2.33-0.72-2.57-1.9c-0.08-0.41-0.04-0.89,0.1-1.29
		c1.08-3.07,2.19-6.12,3.32-9.18c0.44-1.21,1.31-1.8,2.6-1.8c3.8-0.01,7.61-0.01,11.41,0c1.33,0,2.2,0.6,2.65,1.84
		c1.09,2.98,2.1,6,3.26,8.96c0.73,1.85-0.75,3.39-2.41,3.39C18.01,39.9,14.95,39.91,11.89,39.9C11.89,39.91,11.89,39.9,11.89,39.9z"
		/>
	<path class="st0" d="M26.07,23.3c-3.01,0-6.03,0.01-9.04,0c-1.4-0.01-2.42-0.7-2.65-1.89c-0.09-0.43-0.04-0.94,0.11-1.37
		c1.06-3.02,2.16-6.03,3.25-9.04c0.46-1.26,1.31-1.86,2.63-1.87c3.78-0.01,7.56-0.01,11.34-0.01c1.49,0,2.29,0.57,2.8,1.96
		c1.07,2.94,2.05,5.92,3.21,8.82c0.62,1.54-0.37,3.38-2.39,3.4c-2.74,0.02-5.48,0-8.22,0C26.76,23.29,26.41,23.29,26.07,23.3
		L26.07,23.3z"/>
</g>
</svg>
