<?xml version="1.0" encoding="UTF-8" standalone="no"?>
<!-- Created with Inkscape (http://www.inkscape.org/) -->

<svg
   width="88.487289mm"
   height="28.450668mm"
   viewBox="0 0 88.487289 28.450668"
   version="1.1"
   id="svg2263"
   inkscape:version="1.1 (c68e22c387, 2021-05-23)"
   sodipodi:docname="Logo.svg"
   xmlns:inkscape="http://www.inkscape.org/namespaces/inkscape"
   xmlns:sodipodi="http://sodipodi.sourceforge.net/DTD/sodipodi-0.dtd"
   xmlns="http://www.w3.org/2000/svg"
   xmlns:svg="http://www.w3.org/2000/svg">
  <sodipodi:namedview
     id="namedview2265"
     pagecolor="#ffffff"
     bordercolor="#666666"
     borderopacity="1.0"
     inkscape:pageshadow="2"
     inkscape:pageopacity="0.0"
     inkscape:pagecheckerboard="0"
     inkscape:document-units="mm"
     showgrid="false"
     fit-margin-top="0"
     fit-margin-left="0"
     fit-margin-right="0"
     fit-margin-bottom="0"
     inkscape:zoom="0.72337262"
     inkscape:cx="72.576704"
     inkscape:cy="35.251542"
     inkscape:window-width="2400"
     inkscape:window-height="1271"
     inkscape:window-x="1674"
     inkscape:window-y="-9"
     inkscape:window-maximized="1"
     inkscape:current-layer="layer1" />
  <defs
     id="defs2260" />
  <g
     inkscape:label="Camada 1"
     inkscape:groupmode="layer"
     id="layer1"
     transform="translate(-30.372122,-139.0296)">
    <rect
       style="fill:#0a3255;fill-opacity:1;stroke-width:0.264583"
       id="rect2488"
       height="3.3946042"
       width="12.490115"
       class="st7"
       y="164.08566"
       x="30.372122"
       inkscape:export-filename="C:\Users\vitor.andrioli\OneDrive - INTL FCSTONE INC\Desktop\rect2488.png"
       inkscape:export-xdpi="300"
       inkscape:export-ydpi="300" />
    <g
       id="g2508"
       transform="matrix(0.0747414,0,0,0.0747414,60.530404,56.27557)"
       style="fill:#0a3255;fill-opacity:1;stroke-width:3.53998"
       inkscape:export-filename="C:\Users\vitor.andrioli\OneDrive - INTL FCSTONE INC\Desktop\rect2488.png"
       inkscape:export-xdpi="300"
       inkscape:export-ydpi="300">
      <path
         id="path2490"
         d="m -325.53691,1365.5529 c -31.8511,0 -52.2004,-4.4237 -68.126,-11.5018 -8.8476,-53.97 -8.8476,-53.97 -8.8476,-53.97 7.0781,0 7.0781,0 7.0781,0 6.1933,12.3866 6.1933,12.3866 6.1933,12.3866 15.9255,30.9664 35.3902,44.2377 67.2413,44.2377 35.3902,0 55.7395,-17.6951 55.7395,-46.892 0,-25.6578 -15.0408,-38.9291 -57.509,-53.97 -48.6614,-15.9255 -72.5498,-34.5054 -72.5498,-76.0888 0,-42.4682 38.0444,-72.5499 85.8211,-72.5499 29.1969,0 46.0072,4.4238 61.9328,10.6171 8.8475,56.6242 8.8475,56.6242 8.8475,56.6242 -7.078,0 -7.078,0 -7.078,0 -6.1932,-13.2713 -6.1932,-13.2713 -6.1932,-13.2713 -14.1562,-30.9664 -32.736,-44.2377 -60.1634,-44.2377 -30.0816,0 -46.8919,17.6951 -46.8919,42.4682 0,25.6579 14.156,38.0445 53.97,51.3157 53.0853,17.6951 76.0888,38.0445 76.0888,78.7432 0,46.0072 -43.353,76.0888 -95.5535,76.0888 z"
         style="fill:#0a3255;fill-opacity:1;fill-rule:nonzero;stroke:none;stroke-width:3.53998" />
      <path
         id="path2492"
         d="m -102.57881,1344.3189 c -15.0409,12.3865 -30.0816,21.234 -49.5462,21.234 -28.3121,0 -43.353,-13.2713 -43.353,-43.3529 0,-117.6723 0,-117.6723 0,-117.6723 -25.6578,0 -25.6578,0 -25.6578,0 0,-6.1933 0,-6.1933 0,-6.1933 27.4273,-10.6171 27.4273,-10.6171 27.4273,-10.6171 27.4274,-55.7395 27.4274,-55.7395 27.4274,-55.7395 11.5018,0 11.5018,0 11.5018,0 0,56.6243 0,56.6243 0,56.6243 47.7768,0 47.7768,0 47.7768,0 0,15.9256 0,15.9256 0,15.9256 -47.7768,0 -47.7768,0 -47.7768,0 0,116.7876 0,116.7876 0,116.7876 0,17.695 8.8475,25.6578 23.0036,25.6578 9.7323,0 15.9256,-2.6542 24.7732,-8.8475 z"
         style="fill:#0a3255;fill-opacity:1;fill-rule:nonzero;stroke:none;stroke-width:3.53998" />
      <path
         id="path2494"
         d="m -3.4863111,1366.4377 c -51.3157999,0 -89.3601999,-31.8512 -89.3601999,-92.8992 0,-51.3157 37.1597,-90.2449 89.3601999,-90.2449 51.3158001,0 89.3602001,31.8511 89.3602001,92.8992 0,51.3157 -37.1597,90.2449 -89.3602001,90.2449 z m -4.4237,-174.2966 c -25.6578999,0 -39.8139999,19.4646 -39.8139999,70.7804 0,57.509 18.5798,94.6686 48.66149992,94.6686 25.65780008,0 39.81390008,-19.4645 39.81390008,-70.7803 0,-57.509 -17.6951,-94.6687 -48.6614001,-94.6687 z"
         style="fill:#0a3255;fill-opacity:1;fill-rule:nonzero;stroke:none;stroke-width:3.53998" />
      <path
         id="path2496"
         d="m 304.40808,1362.8987 c -8.84748,0 -29.1968,0 -45.1224,0 -15.92556,0 -36.27488,0 -45.12248,0 0,-5.3086 0,-5.3086 0,-5.3086 5.30856,-0.8846 5.30856,-0.8846 5.30856,-0.8846 15.92556,-3.5391 18.5798,-7.9628 18.5798,-40.6988 0,-69.0108 0,-69.0108 0,-69.0108 0,-27.4274 -11.50184,-40.6986 -31.85116,-40.6986 -14.15601,0 -26.54261,5.3085 -37.15971,14.156 0,95.5534 0,95.5534 0,95.5534 0,32.736 2.6544,37.1597 18.5799,40.6988 6.1933,0.8846 6.1933,0.8846 6.1933,0.8846 0,5.3086 0,5.3086 0,5.3086 -8.8476,0 -30.0816,0 -45.1225,0 -15.9256,0 -37.1596,0 -46.0072,0 0,-5.3086 0,-5.3086 0,-5.3086 7.0781,-0.8846 7.0781,-0.8846 7.0781,-0.8846 15.0407,-2.6543 17.6951,-7.9628 17.6951,-43.353 0,-76.9736 0,-76.9736 0,-76.9736 0,-19.4646 -3.5391,-24.7731 -15.9256,-30.9664 -8.8476,-4.4238 -8.8476,-4.4238 -8.8476,-4.4238 0,-3.539 0,-3.539 0,-3.539 61.0481,-14.1561 61.0481,-14.1561 61.0481,-14.1561 5.3084,3.539 5.3084,3.539 5.3084,3.539 0,24.7731 0,24.7731 0,24.7731 19.4646,-16.8103 37.15971,-27.4274 60.16339,-27.4274 32.73584,0 50.43092,17.6951 50.43092,54.8548 0,74.3194 0,74.3194 0,74.3194 0,36.2749 2.65424,40.6986 17.69512,43.3529 7.07796,0.8847 7.07796,0.8847 7.07796,0.8847 z"
         style="fill:#0a3255;fill-opacity:1;fill-rule:nonzero;stroke:none;stroke-width:3.53998" />
      <path
         id="path2498"
         d="m 355.72388,1258.4977 c 0,2.6542 0,2.6542 0,2.6542 0.8848,50.431 28.31208,81.3974 64.58708,81.3974 20.34932,0 34.5054,-7.9628 49.54624,-23.0036 5.30848,4.4238 5.30848,4.4238 5.30848,4.4238 -19.4646,26.5426 -44.23768,42.4682 -76.08884,42.4682 -46.89204,0 -81.3974,-31.8512 -81.3974,-86.7059 0,-59.2785 44.23768,-96.4382 87.59064,-96.4382 46.89204,0 69.8956,26.5426 70.7804,75.2041 z m 76.97364,-9.7323 c -0.88484,-37.1597 -14.15608,-56.6243 -35.3902,-56.6243 -23.88836,0 -39.81396,21.2341 -41.58344,56.6243 z"
         style="fill:#0a3255;fill-opacity:1;fill-rule:nonzero;stroke:none;stroke-width:3.53998" />
      <path
         id="path2500"
         d="m 735.28344,1362.8987 c -7.07808,0 -38.92924,-0.8847 -51.31576,-0.8847 -12.38656,0 -52.20048,0.8847 -59.27856,0.8847 0,-5.3086 0,-5.3086 0,-5.3086 11.50184,-1.7694 11.50184,-1.7694 11.50184,-1.7694 10.617,-1.7696 15.04076,-4.4238 15.04076,-10.6171 0,-6.1933 -3.53896,-13.2713 -10.617,-24.7731 -39.81396,-61.048 -39.81396,-61.048 -39.81396,-61.048 -39.81396,54.8547 -39.81396,54.8547 -39.81396,54.8547 -8.84748,12.3865 -13.27124,22.1189 -13.27124,29.1969 0,6.1933 4.42376,10.617 15.0408,12.3866 11.5018,1.7694 11.5018,1.7694 11.5018,1.7694 0,5.3086 0,5.3086 0,5.3086 -6.19324,0 -34.50536,-0.8847 -46.892,-0.8847 -12.38656,0 -32.73588,0.8847 -39.81396,0.8847 0,-5.3086 0,-5.3086 0,-5.3086 6.19336,-0.8846 6.19336,-0.8846 6.19336,-0.8846 15.9256,-2.6543 30.96636,-15.9256 43.35288,-31.8512 57.50904,-75.2041 57.50904,-75.2041 57.50904,-75.2041 -57.50904,-83.1669 -57.50904,-83.1669 -57.50904,-83.1669 -13.27124,-19.4646 -22.11884,-28.3122 -36.27488,-30.9664 -7.078,-0.8848 -7.078,-0.8848 -7.078,-0.8848 0,-5.3085 0,-5.3085 0,-5.3085 6.19328,0 38.04444,0.8847 50.431,0.8847 13.27132,0 52.20044,-0.8847 59.27844,-0.8847 0,5.3085 0,5.3085 0,5.3085 -11.50172,1.7696 -11.50172,1.7696 -11.50172,1.7696 -9.73232,0.8847 -15.04088,4.4237 -15.04088,10.617 0,6.1933 3.53904,13.2713 11.50184,25.6579 33.62064,52.2005 33.62064,52.2005 33.62064,52.2005 33.62068,-46.892 33.62068,-46.892 33.62068,-46.892 8.84752,-12.3866 13.27124,-22.1188 13.27124,-29.1969 0,-6.1933 -4.42372,-10.617 -15.04076,-12.3865 -11.50184,-1.7696 -11.50184,-1.7696 -11.50184,-1.7696 0,-5.3085 0,-5.3085 0,-5.3085 6.19328,0 34.5054,0.8847 46.89192,0.8847 13.27136,0 33.62068,-0.8847 39.81396,-0.8847 0,5.3085 0,5.3085 0,5.3085 -6.19328,0.8848 -6.19328,0.8848 -6.19328,0.8848 -15.92556,2.6542 -30.0816,15.0408 -42.46816,31.8511 -51.31576,67.2413 -51.31576,67.2413 -51.31576,67.2413 61.93276,91.1297 61.93276,91.1297 61.93276,91.1297 13.27136,19.4646 22.11884,28.3121 36.27504,30.9664 7.96276,0.8847 7.96276,0.8847 7.96276,0.8847 z"
         style="fill:#0a3255;fill-opacity:1;fill-rule:nonzero;stroke:none;stroke-width:3.53998" />
      <text
         id="text2506"
         y="1162.9441"
         x="741.47675"
         style="font-style:normal;font-variant:normal;font-weight:600;font-size:45.9519px;line-height:125%;font-family:'Muli SemiBold';text-align:start;letter-spacing:0px;word-spacing:0px;text-anchor:start;fill:#0a3255;fill-opacity:1;stroke:none;stroke-width:3.53998"
         xml:space="preserve"><tspan
           id="tspan2504"
           y="1162.9441"
           x="741.47675"
           sodipodi:role="line"
           style="fill:#0a3255;fill-opacity:1;stroke-width:3.53998"><tspan
             id="tspan2502"
             style="font-style:normal;font-variant:normal;font-weight:600;font-size:45.9519px;font-family:'Muli SemiBold';fill:#0a3255;fill-opacity:1;stroke-width:3.53998"
             dy="0"
             dx="0">®</tspan></tspan></text>
    </g>
    <rect
       style="fill:#336195;fill-opacity:1;stroke-width:0.264583"
       id="rect2510"
       height="3.3946042"
       width="12.543789"
       class="st1"
       y="164.08566"
       x="42.603809"
       inkscape:export-filename="C:\Users\vitor.andrioli\OneDrive - INTL FCSTONE INC\Desktop\rect2488.png"
       inkscape:export-xdpi="300"
       inkscape:export-ydpi="300" />
    <rect
       style="fill:#7aacd4;fill-opacity:0.952941;stroke-width:0.264583"
       id="rect2512"
       height="3.3946042"
       width="12.484118"
       class="st2"
       y="164.08566"
       x="54.835495"
       inkscape:export-filename="C:\Users\vitor.andrioli\OneDrive - INTL FCSTONE INC\Desktop\rect2488.png"
       inkscape:export-xdpi="300"
       inkscape:export-ydpi="300" />
    <rect
       style="fill:#297151;fill-opacity:1;stroke-width:0.264583"
       id="rect2514"
       height="3.3946042"
       width="12.479878"
       class="st3"
       y="164.08566"
       x="67.067184"
       inkscape:export-filename="C:\Users\vitor.andrioli\OneDrive - INTL FCSTONE INC\Desktop\rect2488.png"
       inkscape:export-xdpi="300"
       inkscape:export-ydpi="300" />
    <rect
       style="fill:#e1d254;fill-opacity:1;stroke-width:0.264583"
       id="rect2516"
       height="3.3946042"
       width="12.549787"
       class="st4"
       y="164.08566"
       x="79.298874"
       inkscape:export-filename="C:\Users\vitor.andrioli\OneDrive - INTL FCSTONE INC\Desktop\rect2488.png"
       inkscape:export-xdpi="300"
       inkscape:export-ydpi="300" />
    <rect
       style="fill:#f5a81c;fill-opacity:1;stroke-width:0.264583"
       id="rect2518"
       height="3.3946042"
       width="12.519073"
       class="st5"
       y="164.08566"
       x="91.533203"
       inkscape:export-filename="C:\Users\vitor.andrioli\OneDrive - INTL FCSTONE INC\Desktop\rect2488.png"
       inkscape:export-xdpi="300"
       inkscape:export-ydpi="300" />
    <rect
       style="fill:#b22b2e;fill-opacity:1;stroke-width:0.264583"
       id="rect2520"
       height="3.3946042"
       width="12.231688"
       class="st6"
       y="164.08566"
       x="103.76488"
       inkscape:export-filename="C:\Users\vitor.andrioli\OneDrive - INTL FCSTONE INC\Desktop\rect2488.png"
       inkscape:export-xdpi="300"
       inkscape:export-ydpi="300" />
    <rect
       x="30.372122"
       y="164.08566"
       class="st7"
       width="12.490115"
       height="3.3946042"
       id="rect2522"
       style="fill:#0a3255;fill-opacity:1;stroke-width:0.264583"
       inkscape:export-filename="C:\Users\vitor.andrioli\OneDrive - INTL FCSTONE INC\Desktop\rect2488.png"
       inkscape:export-xdpi="300"
       inkscape:export-ydpi="300" />
    <rect
       x="42.603809"
       y="164.08566"
       class="st1"
       width="12.543789"
       height="3.3946042"
       id="rect2524"
       style="fill:#336195;fill-opacity:1;stroke-width:0.264583"
       inkscape:export-filename="C:\Users\vitor.andrioli\OneDrive - INTL FCSTONE INC\Desktop\rect2488.png"
       inkscape:export-xdpi="300"
       inkscape:export-ydpi="300" />
    <rect
       x="54.835495"
       y="164.08566"
       class="st2"
       width="12.484118"
       height="3.3946042"
       id="rect2526"
       style="fill:#7baed4;fill-opacity:1;stroke-width:0.264583"
       inkscape:export-filename="C:\Users\vitor.andrioli\OneDrive - INTL FCSTONE INC\Desktop\rect2488.png"
       inkscape:export-xdpi="300"
       inkscape:export-ydpi="300" />
    <rect
       x="67.067184"
       y="164.08566"
       class="st3"
       width="12.479878"
       height="3.3946042"
       id="rect2528"
       style="fill:#297151;fill-opacity:1;stroke-width:0.264583"
       inkscape:export-filename="C:\Users\vitor.andrioli\OneDrive - INTL FCSTONE INC\Desktop\rect2488.png"
       inkscape:export-xdpi="300"
       inkscape:export-ydpi="300" />
    <rect
       x="79.298874"
       y="164.08566"
       class="st4"
       width="12.549787"
       height="3.3946042"
       id="rect2530"
       style="fill:#e1d254;fill-opacity:1;stroke-width:0.264583"
       inkscape:export-filename="C:\Users\vitor.andrioli\OneDrive - INTL FCSTONE INC\Desktop\rect2488.png"
       inkscape:export-xdpi="300"
       inkscape:export-ydpi="300" />
    <rect
       x="91.533203"
       y="164.08566"
       class="st5"
       width="12.519073"
       height="3.3946042"
       id="rect2532"
       style="fill:#f5a81c;fill-opacity:1;stroke-width:0.264583"
       inkscape:export-filename="C:\Users\vitor.andrioli\OneDrive - INTL FCSTONE INC\Desktop\rect2488.png"
       inkscape:export-xdpi="300"
       inkscape:export-ydpi="300" />
    <rect
       x="103.76488"
       y="164.08566"
       class="st6"
       width="12.231688"
       height="3.3946042"
       id="rect2534"
       style="fill:#b22b2e;fill-opacity:1;stroke-width:0.264583"
       inkscape:export-filename="C:\Users\vitor.andrioli\OneDrive - INTL FCSTONE INC\Desktop\rect2488.png"
       inkscape:export-xdpi="300"
       inkscape:export-ydpi="300" />
    <path
       style="fill:none;stroke:none;stroke-width:0.264583px;stroke-linecap:butt;stroke-linejoin:miter;stroke-opacity:1"
       d="m 118.85941,141.68982 v 0.5145"
       id="path2544"
       inkscape:export-filename="C:\Users\vitor.andrioli\OneDrive - INTL FCSTONE INC\Desktop\rect2488.png"
       inkscape:export-xdpi="300"
       inkscape:export-ydpi="300" />
    <path
       style="fill:none;stroke:none;stroke-width:0.264583px;stroke-linecap:butt;stroke-linejoin:miter;stroke-opacity:1"
       d="m 118.64101,141.94728 v 0.0806"
       id="path2028" />
  </g>
</svg>
