<?xml version="1.0" standalone="no"?>
<!DOCTYPE svg PUBLIC "-//W3C//DTD SVG 20010904//EN"
 "http://www.w3.org/TR/2001/REC-SVG-20010904/DTD/svg10.dtd">
<svg version="1.0" xmlns="http://www.w3.org/2000/svg"
 width="192.000000pt" height="192.000000pt" viewBox="0 0 192.000000 192.000000"
 preserveAspectRatio="xMidYMid meet">
<g transform="translate(0.000000,192.000000) scale(0.100000,-0.100000)"
fill="#000000" stroke="none">
<path d="M50 1575 l0 -285 285 0 285 0 0 285 0 285 -285 0 -285 0 0 -285z"/>
<path d="M1300 1575 l0 -285 285 0 285 0 0 285 0 285 -285 0 -285 0 0 -285z"/>
<path d="M50 960 l0 -290 285 0 285 0 0 290 0 290 -285 0 -285 0 0 -290z"/>
<path d="M670 960 l0 -290 288 2 287 3 3 288 2 287 -290 0 -290 0 0 -290z"/>
<path d="M50 345 l0 -285 285 0 285 0 0 285 0 285 -285 0 -285 0 0 -285z"/>
<path d="M670 345 l0 -285 290 0 290 0 0 285 0 285 -290 0 -290 0 0 -285z"/>
<path d="M1300 345 l0 -285 285 0 285 0 0 285 0 285 -285 0 -285 0 0 -285z"/>
</g>
</svg>
